<?xml version="1.0" encoding="UTF-8"?><svg id="Capa_1" xmlns="http://www.w3.org/2000/svg" xmlns:xlink="http://www.w3.org/1999/xlink" viewBox="0 0 330.81 300.28"><defs><style>.cls-1{clip-path:url(#clippath);}.cls-2{fill:none;}.cls-3{fill:#35676d;}</style><clipPath id="clippath"><rect class="cls-2" x="0" width="330.81" height="300.28"/></clipPath></defs><g class="cls-1"><path class="cls-3" d="M297.78,224.7c0,2.51-1.51,4.52-3.52,6.01-1.5,1.5-4,2.5-7,2.5s-6.01-.99-7.52-2.5c-2-1.5-3-3.5-3-6.01V96.09c0-2,1-4.5,3-5.5,1.51-1.5,4.51-2.5,7.52-2.5s5.5,.99,7,2.5c2,.99,3.52,3.5,3.52,5.5V224.7ZM128.13,55.55l1.49-16.02c0-3,.52-5,1-7.49,.52-1.5,1-3.01,1.51-4.01h66.55c.5,1,1,2.51,1.52,4.01,.48,2.5,1,4.49,1,7.49l1.48,16.02h-74.55ZM46.05,100.6c-8.02,0-14.01-6.51-14.01-14.01,0-8.02,6-14.52,14.01-14.52s14.01,6.5,14.01,14.52c0,7.5-6,14.01-14.01,14.01M312.29,55.55h-83.58l-1.52-18.52c-.48-4.5-.99-8-2-12-.99-4.02-2.48-7.51-4-11.01-2-3.51-4-7-6.5-9C211.2,2.01,207.2,0,202.2,0h-73.59c-5,0-9,2-12.51,5.02-2.49,2.5-5,5.5-6.48,9-1.52,3.5-3.01,6.99-4.02,11.01-.5,4-1.5,7.5-2,12l-1.5,18.52h-33.03v-7.5c0-.5-.48-1.5-.99-2.5-.5-.5-1.5-1-2.51-1H33.03c-.99,0-2,.5-2.49,1-1,.99-1,2-1,2.5v7.5h-11.02C8.52,56.56,0,65.57,0,76.07V241.71c0,11.52,9.02,20.52,20.51,20.52h15.52l-3.99-9.5C-21.52,123.12,174.17,46.55,226.2,172.16c5.51,13.01,8.51,26.53,8.51,40.54s-3,27.02-8.51,40.04l-3.48,9.5h87.56c11.49,0,20.53-9,20.53-20.52V76.07c0-10.5-8.52-19.51-18.52-20.51"/><path class="cls-3" d="M183.68,235.24c-2.51,7-7.01,13.51-12.51,19.02-5.52,5.5-12.02,10.01-19.52,12.5-6.51,3.01-14.01,4.52-22.03,4.52-8.49,0-16-1.5-23-4.52-7.02-2.48-13.51-7-19.03-12.5-5.5-5.5-10-12.02-13-19.02-2.51-7-3.99-14.52-3.99-22.52s1.48-16.02,3.99-23.03c3-7,7.5-13.5,13-19,5.52-5.51,12.02-9.51,19.03-12.51,7-3,14.51-4.52,23-4.52,8.02,0,15.52,1.52,22.03,4.52,7.5,3,14,7,19.52,12.51,5.5,5.5,10,12,12.51,19,3.01,7.02,5,15.02,5,23.03s-2,15.52-5,22.52m26.52-56.05c-4.52-11.02-11.02-20.51-19.03-28.53-7.99-8-18-14.52-28.51-19.02-10-4-21.52-6.5-33.03-6.5s-23.51,2.5-33.52,6.5c-11.02,4.5-20.51,11.02-28.53,19.02-8.01,8.02-14.5,17.51-19.02,28.53-4.49,10.5-6.5,21.52-6.5,33.53s2,23.02,6.5,33.03c4.52,11,11.01,20.51,19.02,28.51,8.02,8,17.51,14.52,28.53,19.02,10.01,4.5,21.52,7,33.52,7s23.03-2.5,33.03-7c10.52-4.5,20.52-11.02,28.51-19.02,8.02-8,14.52-17.51,19.03-28.51,4-10.01,6.51-21.53,6.51-33.03s-2.51-23.03-6.51-33.53"/><path class="cls-3" d="M90.58,228.71c17.51,41.55,80.58,29.03,80.58-16,0-11.52-4.51-22.03-12.52-29.53-32.03-32.03-85.06,3.5-68.06,45.54"/></g></svg>