<?xml version="1.0" encoding="UTF-8"?><svg id="Capa_1" xmlns="http://www.w3.org/2000/svg" xmlns:xlink="http://www.w3.org/1999/xlink" viewBox="0 0 363.15 363.55"><defs><style>.cls-1{clip-path:url(#clippath-1);}.cls-2{clip-path:url(#clippath);}.cls-3{fill:none;}.cls-4{fill:#35676d;}</style><clipPath id="clippath"><rect class="cls-3" x="0" y="0" width="363.15" height="363.55"/></clipPath><clipPath id="clippath-1"><rect class="cls-3" x="0" y="0" width="363.15" height="363.55"/></clipPath></defs><g class="cls-2"><path class="cls-4" d="M178.53,348.23c-10.11-7.81-18.48-18.29-21.05-30.43-.61-2.88-.82-6.11,.95-8.51,2.28-3.1,6.97-3.6,10.84-2.75,11.26,2.47,18.24,12.89,24,22.43-.45-6.89-.89-13.89,.57-20.65,1.46-6.77,5.07-13.4,11.16-17.16,6.09-3.76,14.87-3.93,20.21,.76,6.42,5.64,5.74,15.67,2.12,23.24-4.31,9.01-11.81,16.28-16.87,24.93-2.15,3.68-3.77,7.75-4.43,11.92-.58,3.68,1.04,8.52-.62,11.55-9.45-3-19.17-9.37-26.88-15.33"/><path class="cls-4" d="M352.6,315.48c3.86-4.1,7.18-8.7,9.08-13.89,2.67-7.29,2.84-22.87-9.2-22.23-8.19,.44-15.58,11.29-19.58,17.05,3.35-4.83,3.45-17.46-.27-21.87-4.54-5.38-13.9-5.82-18.6-.47-6.42,7.29-5.19,20.18-3.29,28.78,1.39,6.29,3.3,12.56,3.33,18.98,.03,7.07-2.83,11.61-6.92,17.05,2.42,.76,5.49-.49,7.79-1.32,13.69-4.97,25.8-10.21,36.14-20.51,.52-.52,1.03-1.04,1.53-1.57"/><path class="cls-4" d="M17.37,313.49c-8.17-6.32-14.94-14.78-17.02-24.61-.49-2.33-.66-4.94,.77-6.88,1.84-2.5,5.64-2.91,8.77-2.22,9.1,2,14.75,10.43,19.4,18.14-.36-5.58-.72-11.23,.46-16.7,1.18-5.47,4.1-10.83,9.02-13.87,4.92-3.04,12.02-3.18,16.33,.61,5.19,4.56,4.65,12.67,1.72,18.79-3.48,7.28-9.55,13.16-13.64,20.16-1.74,2.97-3.05,6.26-3.58,9.64-.47,2.98,.85,6.89-.5,9.33-7.64-2.43-15.5-7.57-21.73-12.39"/><path class="cls-4" d="M264.34,219.36l-29.51,39.1,79.14-29.81-49.63-9.29ZM156,75.79v40.07c-10.11,3.67-20.77,2.09-28.02,.03-3.14-.89-6.3-2.43-10.23-4.98-12.62-8.19-33.2-3.84-41.92,2.28v-37.05c0-2.11,1.8-3.83,4.02-3.83h72.5c2.01,0,3.65,1.55,3.65,3.47m-43.19,114.41v61.6l-43.33,23.36h92.86l-43.33-23.36v-61.64c.07,0,.14-.01,.2-.02,.68-.05,1.36-.11,2.03-.19,.74-.09,1.47-.2,2.19-.32,.71-.12,1.42-.25,2.12-.4,.61-.14,1.2-.28,1.8-.44,.84-.22,1.67-.46,2.49-.73,.37-.13,.73-.25,1.1-.38,1.07-.38,2.12-.8,3.14-1.25,.04-.02,.08-.04,.13-.06,14.68-6.57,24.89-20.74,24.89-37.17V74.08c0-2.61-2.22-4.72-4.96-4.72H77.28c-2.51,0-4.56,1.94-4.56,4.33v75.51c0,1.61,.13,3.21,.32,4.78,.05,.44,.15,.88,.21,1.32,.19,1.14,.4,2.27,.68,3.39,.13,.51,.26,1,.4,1.5,.31,1.06,.67,2.1,1.06,3.12,.19,.49,.35,.97,.56,1.44,.59,1.38,1.25,2.73,1.99,4.03,.04,.07,.07,.14,.1,.21,6.9,11.93,19.21,19.62,33.11,21.05,.23,.03,.46,.05,.7,.07,.31,.03,.63,.07,.94,.09"/><path class="cls-4" d="M266.65,76.69c-.23,0-.47,.04-.74,.13l-99.4,34.3c-1.07,.38-1.31,1.24-1.36,1.6-.05,.35-.08,1.26,.85,1.89l78.76,54.29,23.9-89.72c.28-1.05-.34-1.73-.63-1.97-.21-.18-.7-.52-1.38-.52m-19.29,99.03l-83.87-57.8c-1.91-1.32-2.9-3.53-2.57-5.76,.33-2.23,1.91-4.09,4.14-4.86l99.41-34.3c2.22-.76,4.69-.29,6.45,1.2,1.75,1.52,2.48,3.81,1.9,5.99l-25.45,95.53Z"/></g><polygon class="cls-4" points="263.06 222.4 244.05 173.02 248.07 171.61 267.08 221 263.06 222.4"/><polygon class="cls-4" points="246.06 172.32 256.64 132.6 181.41 127.89 246.06 172.32"/><g class="cls-1"><path class="cls-4" d="M81.29,46.4c-1.04,0-2.08-.36-2.91-1.08l-23.6-20.8c-1.73-1.53-1.84-4.1-.23-5.75,1.6-1.65,4.31-1.75,6.04-.22l23.61,20.8c1.73,1.53,1.83,4.11,.23,5.75-.84,.87-1.98,1.3-3.13,1.3"/><path class="cls-4" d="M117.96,38.76c-3.01,0-5.45-1.82-5.45-4.07V4.07c0-2.25,2.44-4.07,5.45-4.07s5.45,1.82,5.45,4.07v30.62c0,2.25-2.44,4.07-5.45,4.07"/><path class="cls-4" d="M152.28,47.95c-.94,0-1.88-.29-2.67-.89-1.84-1.41-2.14-3.96-.66-5.72l20.12-23.89c1.48-1.76,4.17-2.03,6.01-.63,1.84,1.41,2.14,3.97,.67,5.72l-20.12,23.89c-.85,1.01-2.08,1.53-3.34,1.53"/><path class="cls-4" d="M226.85,38.72c-2.22,0-4.09-1.63-4.26-3.77l-2.35-30.54c-.17-2.24,1.6-4.19,3.96-4.36,2.28-.2,4.41,1.52,4.57,3.76l2.35,30.54c.17,2.24-1.6,4.19-3.95,4.36-.1,0-.21,.01-.32,.01"/><path class="cls-4" d="M263.01,49.26c-.73,0-1.46-.17-2.13-.55-2.04-1.12-2.75-3.61-1.56-5.56l16.08-26.52c1.17-1.94,3.78-2.61,5.84-1.49,2.04,1.12,2.74,3.61,1.56,5.56l-16.08,26.51c-.8,1.3-2.23,2.03-3.71,2.03"/></g></svg>