<?xml version="1.0" encoding="UTF-8"?><svg id="Capa_1" xmlns="http://www.w3.org/2000/svg" xmlns:xlink="http://www.w3.org/1999/xlink" viewBox="0 0 200.74 317.83"><defs><style>.cls-1{fill:#e52421;}.cls-2{fill:#fff;}.cls-3{clip-path:url(#clippath);}.cls-4{fill:none;}.cls-5{fill:#36686d;}.cls-6{fill:#c7ccc5;}</style><clipPath id="clippath"><rect class="cls-4" x="0" y="0" width="200.74" height="317.82"/></clipPath></defs><g class="cls-3"><path class="cls-6" d="M91.64,256.11L15.93,296.07c-10.08-7.39-15.93-16.18-15.93-25.62,0-11.83,9.18-22.64,24.37-30.94,12.84-7.02,29.98-12.24,49.49-14.76l17.78,31.36Z"/><path class="cls-6" d="M125.76,316.3c-8.11,1-16.62,1.53-25.4,1.53-29.26,0-55.6-5.91-73.95-15.34l70.43-37.18,28.91,50.99Z"/><path class="cls-6" d="M190.48,249.57l-69.4,36.63-35.5-62.61c4.82-.34,9.76-.51,14.79-.51,32.8,0,61.93,7.43,80.25,18.92,3.77,2.36,7.08,4.9,9.87,7.58"/><path class="cls-6" d="M200.74,270.45c0,8.3-4.52,16.1-12.46,22.88-11.23,9.59-29.31,17.15-51.12,21.21l-10.86-19.15,70.91-37.43c2.3,3.98,3.52,8.16,3.52,12.49"/><path class="cls-5" d="M192.19,88.59c0,68.69-63.52,128.38-84.89,146.52-3.96,3.36-9.89,3.36-13.85,0C72.07,216.97,8.55,157.29,8.55,88.59,8.55,39.66,49.66,0,100.37,0s91.82,39.66,91.82,88.59"/><path class="cls-2" d="M168.19,88.59c0,36.14-30.36,65.43-67.82,65.43S32.55,124.73,32.55,88.59,62.91,23.16,100.37,23.16s67.82,29.3,67.82,65.43"/><path class="cls-1" d="M101.11,64.82c5.52-11.08,11.5-16.82,23.01-16.82,12.65,0,23.3,9.89,23.3,22.65,0,21.22-21.16,42.79-43.07,64.39-1.82,1.79-4.67,1.8-6.5,.02-22.22-21.6-43.14-43.18-43.14-64.41,0-12.76,10.36-22.65,23.01-22.65,11.89,0,17.4,5.74,23.39,16.82"/></g></svg>