<?xml version="1.0" encoding="UTF-8"?><svg id="Capa_1" xmlns="http://www.w3.org/2000/svg" xmlns:xlink="http://www.w3.org/1999/xlink" viewBox="0 0 298.1 173.33"><defs><style>.cls-1{fill:#e94548;}.cls-2{clip-path:url(#clippath);}.cls-3{fill:none;}.cls-4{fill:#35676d;}</style><clipPath id="clippath"><rect class="cls-3" x="0" y="0" width="298.1" height="173.33"/></clipPath></defs><g class="cls-2"><path class="cls-1" d="M169.35,51.97c-6.17,6-13.08,11.38-18.46,18-10.93-13.74-31.14-20.74-35-38.9-1.04-4.88-.97-10.15,1.17-14.79,.73-1.58,2.5-5.14,4.4-5.73,1.96-.61,5.27,1.15,6.86,2.05,10.34,5.88,10.82,18.17,13.18,27.96,.4,1.66,8.24-.85,8.8-2.11,4.65-10.46,10.67-20.54,18.28-29.45,1.62-1.89,4.47-5.72,7.39-5.43,2.74,.27,5.02,2.59,6.21,4.66,2.58,4.51,1.85,10.05,1.31,14.91-1.26,11.34-5.64,20.56-14.15,28.84m22.17-25.61c1.44-7.56,4.17-21.27-5.64-25.3-8.4-3.45-19.2,2.18-24.5,7.95-5.13,5.58-9.53,11.82-13.3,18.35-1.37-5.77-3.41-11.33-8.25-15.47-6.92-5.93-17.02-5.75-24.82-1.23-8.21,4.76-9.72,14.75-8,22.85,1.93,9.09,8.28,16,15.63,21.98,8.18,6.65,17.46,12.51,22.57,21.66,1,1.79,9.5-1.31,8.86-2.45-.27-.48-.55-.96-.85-1.42,1.51-.35,3.31-.95,4.07-2.03,5.52-7.94,13.5-13.85,20.44-20.66,7.15-7.02,11.94-14.67,13.77-24.23"/><path class="cls-4" d="M162.34,109.47c11.41-8.63,22.92-17.15,34.49-25.58l8.67-6.34c1.4-1.05,2.94-2.12,4.57-3.19,1.62-1.03,3.3-1.99,5.04-2.85,6.95-3.46,14.86-5.61,22.95-5.98,16.24-.96,32.82,5.23,44.31,16.37,5.8,5.53,10.21,12.36,12.91,19.76,1.28,3.72,2.11,7.56,2.56,11.43,.35,3.87,.37,7.77-.08,11.67-.51,3.9-1.4,7.78-2.8,11.55-1.45,3.74-3.32,7.36-5.59,10.75-4.6,6.76-10.78,12.64-18.08,17.01-14.46,8.84-33.49,11.77-50.61,6.96-4.24-1.19-8.39-2.73-12.23-4.74-1.93-.92-3.84-2.14-5.54-3.14l-4.57-2.86-18.24-11.51c-12.15-7.68-24.3-15.37-36.37-23.15-12.11-7.74-24.2-15.5-36.23-23.34l-18.07-11.72-4.51-2.94-1.13-.74-.94-.57-1.84-1.12c-2.51-1.38-5.15-2.52-7.87-3.42-10.9-3.49-23.52-2.26-33.8,3.2-10.25,5.49-17.83,14.94-19.91,25.83-1.03,5.43-1,11.22,.43,16.61,1.36,5.43,4.15,10.51,7.93,14.97,7.65,8.86,19.8,14.78,32.54,15.4,6.36,.3,12.85-.64,18.87-2.94,1.53-.52,2.97-1.24,4.45-1.9,1.46-.78,2.72-1.44,4.37-2.38l9.53-5.22c6.34-3.49,12.7-6.97,19.16-10.31,6.41-3.4,12.9-6.72,19.47-9.93-5.42,4.68-10.92,9.26-16.49,13.75-5.53,4.55-11.16,8.97-16.8,13.37l-8.45,6.62c-.68,.55-1.43,1.08-2.31,1.63-.84,.54-1.68,1.1-2.53,1.61-1.75,.97-3.49,1.98-5.36,2.79-7.34,3.46-15.65,5.34-24.04,5.55-16.84,.49-33.72-6.27-45.23-18.01-5.75-5.87-10.09-13-12.52-20.67C.01,124.07-.6,116.04,.58,108.11c1.22-7.94,4.32-15.75,9.21-22.52,4.79-6.84,11.39-12.51,18.84-16.84,7.53-4.22,16-7.13,24.87-8.15,8.84-1.09,18.01-.24,26.55,2.29,4.25,1.31,8.35,3,12.2,5.05,.95,.52,1.87,1.08,2.81,1.63l1.38,.82,1.14,.72,4.55,2.89,18.15,11.63c12.12,7.73,24.17,15.53,36.21,23.36,12.07,7.79,24.07,15.66,36.06,23.55l17.98,11.84,4.48,2.98c1.39,.85,2.47,1.62,3.8,2.29,2.52,1.44,5.24,2.5,8.01,3.37,11.08,3.4,23.99,2.19,34.37-3.63,5.22-2.8,9.76-6.68,13.24-11.24,1.71-2.29,3.17-4.76,4.35-7.34,1.12-2.61,1.97-5.32,2.54-8.12,2.17-11.33-.88-23.46-9.04-32.58-8.04-9.19-20.79-15.12-34.12-15.66-6.67-.31-13.46,.84-19.77,3.27-1.58,.59-3.12,1.31-4.64,2.05l-2.26,1.16c-.76,.42-1.55,.9-2.33,1.35l-9.33,5.48c-12.42,7.33-24.91,14.57-37.49,21.7"/></g></svg>