<?xml version="1.0" encoding="UTF-8"?><svg id="Capa_1" xmlns="http://www.w3.org/2000/svg" xmlns:xlink="http://www.w3.org/1999/xlink" viewBox="0 0 455.22 171.06"><defs><style>.cls-1{clip-path:url(#clippath-1);}.cls-2{clip-path:url(#clippath);}.cls-3{fill:none;}.cls-4{fill:#35676d;}</style><clipPath id="clippath"><rect class="cls-3" width="455.22" height="171.06"/></clipPath><clipPath id="clippath-1"><rect class="cls-3" width="455.22" height="171.06"/></clipPath></defs><g class="cls-2"><path class="cls-4" d="M142.42,92.1c2.11-11.6,14.19-19.85,26.77-29.35,.17,5.81,.49,11.33,.75,17.53-2.56-.3-7.27,.12-11.88,2.88-4.36,2.6-8.87,6.54-8.15,14.31,.31,3.26,3.27,6.54,6.82,6.6,5.35,.1,7.46-2.89,7.88-6.06,.42-3.17-2.09-6.07-5.61-6.47-.2-.02,.85-1.67,4.61-2.86,3.18-1.01,5.58-.16,6.61,.32,.49,10.58,1.11,21.26,1.32,30.93-.15,.05-.29,.12-.45,.17-16.75,5.71-32.08-9.27-28.68-27.99M174.73,22.53c2.51-9.41,10.27-8.02,10.77-7.92,.57,.23,1.09,.59,1.53,1.13,3.87,4.65,3.38,13.52-14.19,28.77,.16-9.65,.7-17.57,1.88-21.97m.21,95.74c-.19-8.42-.62-18.06-1.09-28.89,9.88,2.01,13.39,21.25,1.09,28.89m16.81-18.78c.28-10.84-11.03-19.71-18.28-19.2-.27-6.85-.48-13.77-.59-20.36,6.5-5.05,12.88-10.55,17.84-17.13,15.51-20.58,7.07-44.49-3.79-42.7-3.21,.53-5.88,2.63-8.07,5.31-.06,.07-.12,.15-.19,.23-.11,.13-.21,.27-.32,.4-.55,.71-1.1,1.51-1.63,2.39-.07,.12-.15,.25-.22,.37-.07,.12-.14,.23-.21,.35-3.45,5.91-5.05,12.47-5.05,12.47-1.73,5.71-2.3,14.96-2.31,26.13-1.5,1.21-3.09,2.45-4.79,3.73-26.03,19.59-39.65,45.89-22.42,65.09,8.31,9.27,19.66,11.65,29.47,8.72,.29,6.74,.59,28.73-7.93,30.63-6.05,1.34-9.6-.64-11.47-2.44,2.03-.99,3.99-2.65,5.06-5.46,3.73-9.78-8.68-19.24-17.69-10.49-3.38,3.28-4.11,7.59-3.19,11.93,.92,4.34-.3-2.3-.3-2.3,.43,9.2,8.96,18.93,25.89,17.04,18.96-2.11,16.63-31.26,14.68-40.95,8.22-4.2,15.2-11.84,15.51-23.78"/></g><path class="cls-4" d="M1.32,20.72H453.9v126.22H1.32V20.72ZM0,148.8H455.22V18.84H0V148.8Z"/><rect class="cls-4" x="1.32" y="53.69" width="452.58" height="1.03"/><rect class="cls-4" x="1.15" y="84.29" width="452.58" height="1.25"/><rect class="cls-4" x="1.52" y="114.81" width="452.58" height="1.2"/><g class="cls-1"><path class="cls-4" d="M32.88,93.88c-15.62,0-15.17,15.59-15.17,15.59l.03-.02c-.02,.22-.03,.45-.03,.68,0,4.05,3.32,7.34,7.41,7.34s7.42-3.29,7.42-7.34-3.32-7.34-7.42-7.34c-1.12,0-2.18,.26-3.14,.7,.12-1.04,.46-2.22,1.23-3.4,2.23-3.45,15.02-8.96,17.55,10.07,2.53,19.04-22.16,39.46-22.16,39.46l1.93,.69s9.67-4.55,20.41-18.35c10.74-13.79,7.55-38.07-8.07-38.07"/><path class="cls-4" d="M53.81,107.81c2.28,0,4.12-1.92,4.12-4.28s-1.85-4.27-4.12-4.27-4.12,1.91-4.12,4.27,1.85,4.28,4.12,4.28"/><path class="cls-4" d="M53.21,112.36c-2.28,0-4.12,1.92-4.12,4.28s1.85,4.27,4.12,4.27,4.12-1.91,4.12-4.27-1.85-4.28-4.12-4.28"/><path class="cls-4" d="M276.51,23.25l-23.77-2.72-1.36-.16-.85,6.44-3.46,26.04c-1.61-1.76-4.85-2.18-7.8-.89-3.38,1.49-5.11,4.68-3.86,7.13,1.25,2.45,5.01,3.23,8.4,1.75,2.39-1.06,3.95-2.96,4.22-4.85h0l3.86-29.03,23.77,2.72-3.46,26.04c-1.61-1.76-4.85-2.19-7.8-.89-3.38,1.49-5.11,4.68-3.86,7.13,1.25,2.45,5.01,3.24,8.4,1.74,2.39-1.05,3.95-2.96,4.22-4.85h0l3.86-29.02,.85-6.44-1.36-.16Z"/><path class="cls-4" d="M390.62,91.59s5.44-6.01,3.81-13.59c-1.39-6.48-5.03-13.04-6.06-14.81l.72-1.7-1.58-.57-15.89,37.76c-1.36-2.57-5.1-4-9.07-3.28-4.55,.82-7.68,4.17-6.98,7.47,.7,3.3,4.95,5.3,9.5,4.47,3.22-.58,5.72-2.43,6.66-4.62h0l8.77-20.84c1.49,1.27,6.03,3.31,6.83,6.97,1.34,6.15-3.03,11.91-3.03,11.91l-.11,2.08s5.88-5.64,4.83-13.3c-1.04-7.66-5.16-15.65-5.16-15.65l1.3-3.09c1.46,1.06,6.91,4.07,7.74,7.88,1.3,6.04-2.35,10.87-2.35,10.87l.06,2.05Z"/><path class="cls-4" d="M296.78,131.78c-4.34,1.76-8.91,1.77-10.19,.04-1.28-1.74,1.2-4.57,5.55-6.33,4.34-1.76,8.91-1.77,10.19-.03,1.28,1.74-1.2,4.57-5.55,6.32m8.98-5.14h0v-45.51h-3.05v42.02c-3-1.95-8.09-2.19-12.57-.38-5.46,2.2-7.94,6.62-5.55,9.86,2.39,3.24,8.75,4.08,14.2,1.88,4.4-1.78,7.43-4.99,6.97-7.86"/><path class="cls-4" d="M37.43,16.13v-3.8l22.19-2.7v3.53l-22.19,2.97Zm23.46-6.23V4.17l-1.28,.13-22.2,2.3-1.27,.13v5.73l.05,23.19c-1.7-1.2-4.73-.94-7.29,.76-2.93,1.95-4.12,5.04-2.66,6.92,1.45,1.88,5.01,1.81,7.94-.14,2.07-1.38,3.27-3.33,3.28-5.02h0l-.03-18.89,22.2-2.49,.03,16.41c-1.7-1.2-4.73-.94-7.28,.76-2.93,1.95-4.12,5.05-2.67,6.92,1.45,1.87,5.01,1.81,7.94-.14,2.07-1.38,3.27-3.33,3.28-5.02h0l-.05-25.84Z"/><path class="cls-4" d="M101.85,96.96h0v-31.84h-2.14v29.4c-2.1-1.36-5.66-1.53-8.79-.26-3.82,1.54-5.56,4.63-3.89,6.9,1.67,2.27,6.12,2.85,9.94,1.31,3.07-1.24,5.2-3.49,4.88-5.5"/><path class="cls-4" d="M350.53,46.11c-3.29-7.15-9.41-14.51-9.41-14.51h-1.36V63.96c-1.81-1.55-5.04-1.6-7.77,0-3.13,1.84-4.41,5.17-2.86,7.43,1.55,2.27,5.34,2.61,8.47,.77,2.21-1.3,3.49-3.35,3.51-5.23h0v-23.09c1.67,.16,5.53,.9,7.26,4.37,3.09,6.21-.11,11.04-.11,11.04l.79,2.31s4.76-8.31,1.48-15.45"/><path class="cls-4" d="M254.44,118.05c-9.78-9.44-24.17-17.64-24.17-17.64l-2.14,.75,20.84,50.96c-3.84-1.43-8.97,.27-12.24,4.31-3.74,4.63-3.61,10.58,.29,13.29,3.9,2.71,10.09,1.15,13.84-3.48,2.64-3.28,3.34-7.2,2.16-10.19h0l-14.88-36.37c2.73-.67,9.29-1.65,14.25,2.86,8.86,8.07,6.93,17.45,6.93,17.45l2.74,3.2s2.15-15.72-7.64-25.16"/><path class="cls-4" d="M308.78,1.25h-1.5V37.19c-2.01-1.72-5.61-1.78-8.63,0-3.47,2.04-4.9,5.74-3.17,8.26,1.72,2.51,5.94,2.9,9.41,.85,2.46-1.44,3.88-3.72,3.9-5.81h0V1.25Z"/></g></svg>