<?xml version="1.0" encoding="UTF-8"?><svg id="Capa_1" xmlns="http://www.w3.org/2000/svg" viewBox="0 0 426.46 375.94"><defs><style>.cls-1{fill:#fff;}.cls-2{fill:#33686d;}.cls-3{fill:#35676d;}</style></defs><path class="cls-3" d="M149.46,79.9c40.5,14.72,80.46,14.61,120.89,.04,0,16.02,.03,32.61-.03,49.2-.01,3.81-3.11,5.2-5.8,6.62-8.6,4.57-17.95,6.7-27.45,7.95-24,3.15-47.87,2.97-71.39-3.71-1.48-.42-2.94-.93-4.38-1.48-11.08-4.23-11.84-5.34-11.84-17.35v-41.27Z"/><path class="cls-3" d="M132.73,204.25c51.56,19.47,102.66,19.59,154.18,.04,0,7.67,.19,16.2-.08,24.71-.13,4.19-3.69,6.09-6.78,7.91-10.23,6.03-21.61,8.46-33.06,10.41-18.69,3.19-37.55,3.54-56.38,2.13-16.02-1.2-31.88-3.6-46.82-10.32-7.58-3.41-12.43-7.97-11.2-17.47,.77-5.98,.14-12.15,.14-17.41"/><path class="cls-3" d="M132.85,164.81c51.72,19.28,102.69,19.35,154.07-.03,0,7.28,.16,15.65-.06,24-.13,4.74-4.14,6.64-7.51,8.55-10.01,5.63-21.03,8.25-32.19,9.91-28.21,4.19-56.4,4.09-84.4-1.93-8.03-1.73-15.82-4.27-23.05-8.37-4.72-2.68-7.4-6.17-6.97-12.2,.5-6.97,.12-14,.12-19.93"/><path class="cls-3" d="M210.09,275.81c-28.01,.13-55.73-2.04-82.49-11.39-5.83-2.04-11.49-4.5-16.37-8.42-6.48-5.2-6.52-9.61-.24-14.86,3.6-3.01,7.76-5.04,12.03-6.86,1.16-.49,2.02-1.09,2.92,.54,4.53,8.24,12.49,11.81,20.58,14.57,24.19,8.24,49.18,10.15,74.51,9,15.6-.71,31.09-2.32,46.07-6.97,10.27-3.19,20.77-6.38,26.83-16.74,.73-1.25,1.55-1.03,2.55-.58,5.15,2.36,10.38,4.61,14.33,8.95,3.63,3.99,3.66,6.96-.08,10.91-5.15,5.44-11.91,8.05-18.67,10.49-21.51,7.77-43.93,10.19-66.54,11.31-5.14,.25-10.3,.04-15.45,.04"/><path class="cls-3" d="M209.94,60.52c-11.18-11.51-22.13-22.6-32.86-33.91-5.76-6.06-5.49-15.8,.18-21.75,5.86-6.14,14.83-6.53,21.24-.77,2.56,2.31,4.95,4.85,7.28,7.4,2.83,3.09,5.34,2.91,8.3,0,3.9-3.83,6.96-8.73,12.52-10.52,6.97-2.24,14.1,.29,17.87,6.41,3.72,6.04,3.02,13.96-1.79,19.3-1.86,2.06-3.86,3.97-5.79,5.97-8.9,9.2-17.8,18.4-26.96,27.87"/><path class="cls-3" d="M209.77,170.61c-21.94-.55-43.75-1.96-64.46-10.48-3.52-1.45-6.86-3.22-9.7-5.77-3.61-3.25-3.61-6.44-.19-9.85,2.23-2.22,5-3.62,7.7-5.11,1.2-.67,2.14-.52,3.26,.34,10.92,8.42,23.94,11.03,36.96,12.65,24.13,2.98,48.24,2.72,71.93-3.92,6.27-1.76,12.37-4.05,17.5-8.3,1.59-1.31,2.89-1.54,4.58-.4,1.84,1.25,3.92,2.17,5.67,3.54,5.27,4.14,5.27,8.35-.19,12.2-10.1,7.12-21.85,9.69-33.61,11.8-13.02,2.33-26.18,3.52-39.45,3.31"/><path class="cls-3" d="M213.19,82.2c-21.08-.1-38.59-1.55-55.17-8.59-3.51-1.49-8.34-2.75-8.28-7.41,.06-4.57,4.89-5.73,8.36-7.38,8.93-4.25,18.55-5.77,28.18-7.26,2.52-.39,4.15,.6,5.81,2.37,4.39,4.68,9.05,9.1,13.39,13.83,3.22,3.51,5.87,3.28,9-.13,4.33-4.74,8.96-9.19,13.42-13.81,1.35-1.4,2.55-2.6,4.81-2.29,10.69,1.44,21.28,3.2,31.02,8.28,2.82,1.47,6.6,2.63,6.44,6.58-.15,3.8-3.84,4.98-6.69,6.43-9.79,4.95-20.4,6.69-31.07,8.14-7.49,1.01-15.03,1.39-19.22,1.23"/><path class="cls-2" d="M28.62,61.12h0c-2.5,0-4.52-1.03-4.52-2.29v-24.73c0-1.27,2.02-2.29,4.52-2.29h0c2.5,0,4.53,1.02,4.53,2.29v24.73c0,1.26-2.03,2.29-4.53,2.29"/><path class="cls-2" d="M35.56,95.31c-.26,0-.53,0-.79,0-13.28-.3-25.99-8.26-34.4-21.42-.7-1.1-.4-2.58,.68-3.26,1.01-.63,2.31-.34,2.96,.67,7.6,11.94,19.01,19.15,30.85,19.42,12.25,.27,23.79-6.77,32.77-19.89,.68-1,2.02-1.23,3-.55,1.05,.72,1.29,2.2,.56,3.27-9.65,14.08-22.21,21.76-35.63,21.76"/><path class="cls-2" d="M42.32,119.37c-1.27,0-2.56-.3-3.83-.92-4.75-2.32-9.46-9.62-9.01-23.22,.05-1.3,1.13-2.31,2.38-2.21,1.18,.1,2.07,1.14,2.03,2.37-.38,11.38,3.16,17.29,6.48,18.91,1.73,.84,3.42,.57,4.76-.78,2.5-2.51,3.89-9.04,.08-19.41-.42-1.15,.1-2.44,1.18-2.93,1.15-.52,2.5,.08,2.94,1.31,3.9,10.65,3.51,19.64-1.14,24.32-1.68,1.69-3.74,2.56-5.88,2.56"/><path class="cls-2" d="M46.68,61.53h0c-2.5,0-4.52-1.03-4.52-2.29v-24.73c0-1.27,2.02-2.29,4.52-2.29h0c2.5,0,4.53,1.02,4.53,2.29v24.73c0,1.26-2.03,2.29-4.53,2.29"/><path class="cls-2" d="M389.45,124.93h0c-1.37-.4-2.17-1.87-1.78-3.28l7.63-27.5c.39-1.41,1.82-2.22,3.19-1.82h0c1.37,.4,2.17,1.87,1.78,3.27l-7.64,27.5c-.39,1.4-1.82,2.22-3.19,1.82"/><path class="cls-2" d="M376.57,155.7c-.24-.19-.49-.39-.73-.58-12.14-10-18.5-26.6-17.29-44.83,.1-1.52,1.4-2.66,2.87-2.49h0c1.36,.15,2.38,1.38,2.29,2.79-1.11,16.52,4.54,31.48,15.37,40.4,11.2,9.22,26.76,11.2,44.08,5.73,1.32-.42,2.72,.34,3.17,1.68,.48,1.43-.31,2.96-1.72,3.41-18.62,5.86-35.56,3.72-48.03-6.1"/><path class="cls-2" d="M376.87,187.02c-1.34-.65-2.56-1.64-3.61-2.94-3.9-4.87-5.35-14.93,1.69-28.9,.67-1.34,2.31-1.83,3.59-1.09h0c1.2,.71,1.64,2.26,1,3.52-5.91,11.69-5.01,19.69-2.29,23.09,1.42,1.78,3.35,2.36,5.42,1.64,3.85-1.34,8.48-7.44,9.46-20.23,.11-1.42,1.28-2.5,2.66-2.45,1.48,.05,2.6,1.37,2.49,2.88-1.02,13.14-5.77,22.33-12.95,24.82-2.6,.9-5.2,.75-7.46-.36"/><path class="cls-2" d="M409.67,131.34h0c-1.37-.4-2.17-1.87-1.77-3.28l7.63-27.5c.39-1.41,1.82-2.22,3.19-1.82h0c1.37,.4,2.17,1.87,1.78,3.27l-7.64,27.5c-.39,1.4-1.82,2.22-3.19,1.82"/><g><path class="cls-3" d="M172.82,307.28c-.29,.22-.57,.45-.85,.7-2.1,1.91-3.68,3.33-4.99,4.29,1.31-.95,2.89-2.38,4.99-4.29,.28-.25,.56-.48,.85-.7Z"/><path class="cls-3" d="M184.97,306.96c-2.89-2.18-6.55-2.52-9.88-1.02,3.33-1.5,6.99-1.16,9.88,1.02Z"/><path class="cls-3" d="M174.51,306.21s.06-.03,.09-.05c-.03,.01-.06,.03-.09,.05Z"/><path class="cls-3" d="M146.54,304.95c-1.99,.26-3.88,1.13-5.44,2.66-.92,.9-1.62,1.93-2.11,3.04,.5-1.11,1.2-2.15,2.12-3.04,1.56-1.52,3.45-2.4,5.44-2.66Z"/><path class="cls-3" d="M144.01,296.87c-3.71,.82-7.15,2.76-9.64,5.71-2.25,2.67-3.71,5.82-4.32,9.07,.62-3.25,2.07-6.4,4.32-9.07,2.49-2.95,5.93-4.89,9.64-5.72Z"/><path class="cls-3" d="M163.7,304.27h0c-1.92-1.67-3.61-3.43-5.57-4.79-.22-.15-.46-.28-.69-.43,.23,.14,.46,.27,.68,.42,1.96,1.35,3.65,3.12,5.57,4.79Z"/><path class="cls-3" d="M183.15,296.92c9.29,2.08,15.27,10.98,14.49,19.64,.78-8.66-5.2-17.56-14.49-19.64Z"/><path class="cls-3" d="M167.48,300.75c2.38-1.88,4.96-3.26,7.87-3.9-2.91,.64-5.49,2.02-7.87,3.9Z"/><path class="cls-3" d="M173.04,307.13c.22-.16,.43-.31,.65-.45-.22,.14-.44,.3-.65,.45Z"/><path class="cls-3" d="M137.24,330.21c7.54,8.02,15.36,15.77,23.04,23.67,.33,.34,.67,.63,1,.88-.34-.25-.67-.54-1-.88-7.68-7.89-15.5-15.64-23.04-23.66Z"/><path class="cls-3" d="M163.57,345.58h0c-2.45-2.53-4.87-5.02-7.28-7.5,2.41,2.48,4.84,4.97,7.28,7.5Z"/><path class="cls-3" d="M166.54,354.23c-.79,.81-1.59,1.25-2.38,1.38,.79-.13,1.59-.57,2.38-1.38,7.17-7.36,14.66-14.46,21.6-22.03-6.94,7.57-14.43,14.67-21.6,22.03Z"/><path class="cls-3" d="M258.73,354.53c.59-.4,1.2-.92,1.83-1.59,.57-.6,1.15-1.19,1.72-1.79-.57,.6-1.15,1.19-1.72,1.79-.63,.67-1.24,1.19-1.83,1.59Z"/><path class="cls-3" d="M149.46,121.16c0,12,.76,13.12,11.84,17.35,1.44,.55,2.9,1.06,4.38,1.48,23.53,6.68,47.4,6.86,71.4,3.71,9.5-1.25,18.85-3.38,27.44-7.95,2.69-1.43,5.78-2.81,5.8-6.63,.06-16.59,.03-33.17,.03-49.19-40.42,14.57-80.39,14.68-120.89-.04v41.27Z"/><path class="cls-3" d="M279.1,297.99c-2.33-.99-4.63-1.54-6.86-1.66,2.23,.12,4.53,.67,6.86,1.66,7.2,3.05,10.6,8.94,10.92,16.76,.18,5.42-1.8,9.89-5.48,13.65-1.65,1.68-3.3,3.36-4.96,5.03,1.65-1.68,3.31-3.35,4.96-5.04,3.68-3.75,5.66-8.23,5.48-13.65-.33-7.83-3.73-13.71-10.92-16.76Z"/><path class="cls-3" d="M236.9,32.65c1.92-1.99,3.94-3.9,5.79-5.97,4.81-5.34,5.52-13.26,1.79-19.3-3.77-6.11-10.9-8.65-17.87-6.41-5.57,1.79-8.63,6.69-12.52,10.52-2.96,2.91-5.47,3.09-8.3,0-2.34-2.55-4.72-5.09-7.29-7.4-6.41-5.77-15.37-5.38-21.23,.77-5.68,5.95-5.94,15.69-.18,21.75,10.73,11.31,21.68,22.4,32.86,33.91,9.15-9.47,18.05-18.67,26.96-27.87Z"/><path class="cls-3" d="M139.7,196.94c7.24,4.1,15.03,6.64,23.06,8.37,28,6.02,56.19,6.12,84.4,1.93,11.16-1.66,22.18-4.27,32.19-9.91,3.37-1.9,7.38-3.81,7.51-8.55,.23-8.35,.06-16.72,.06-24-51.38,19.38-102.35,19.3-154.07,.03,0,5.93,.38,12.96-.12,19.93-.43,6.02,2.25,9.52,6.97,12.2Z"/><path class="cls-3" d="M149.74,66.2c-.06,4.66,4.77,5.92,8.28,7.41,16.59,7.04,34.09,8.48,55.18,8.59,4.19,.16,11.73-.21,19.22-1.23,10.66-1.44,21.28-3.19,31.07-8.14,2.85-1.44,6.55-2.63,6.7-6.43,.15-3.95-3.62-5.11-6.45-6.58-9.73-5.08-20.33-6.84-31.02-8.28-2.26-.3-3.47,.9-4.81,2.29-4.46,4.62-9.09,9.07-13.42,13.81-3.13,3.42-5.78,3.64-9,.13-4.33-4.73-9-9.15-13.39-13.83-1.66-1.77-3.29-2.75-5.81-2.36-9.63,1.48-19.25,3-28.18,7.25-3.48,1.65-8.3,2.81-8.37,7.38Z"/><path class="cls-3" d="M253.33,301.62c2.37,2.19,3.43,2.36,5.87-.03,1.06-1.04,2.16-1.92,3.3-2.65-1.14,.73-2.24,1.61-3.3,2.65-2.43,2.38-3.49,2.22-5.87,.03-6.9-6.37-16.11-6.9-23-1.98,6.89-4.91,16.1-4.39,23,1.98Z"/><path class="cls-3" d="M143.12,139.39c-2.7,1.49-5.47,2.89-7.7,5.11-3.42,3.42-3.43,6.6,.19,9.85,2.84,2.55,6.18,4.32,9.7,5.77,20.72,8.52,42.52,9.93,64.47,10.48,13.27,.22,26.43-.97,39.45-3.31,11.76-2.11,23.51-4.67,33.61-11.8,5.46-3.85,5.46-8.07,.19-12.2-1.75-1.37-3.82-2.29-5.67-3.54-1.69-1.15-3-.91-4.58,.39-5.14,4.24-11.23,6.54-17.5,8.3-23.69,6.64-47.8,6.9-71.93,3.92-13.01-1.61-26.03-4.22-36.96-12.64-1.12-.87-2.05-1.01-3.26-.34Z"/><path class="cls-3" d="M143.79,239.13c14.94,6.72,30.8,9.13,46.82,10.32,18.82,1.41,37.68,1.06,56.37-2.14,11.45-1.96,22.83-4.38,33.06-10.41,3.09-1.82,6.65-3.73,6.79-7.91,.26-8.52,.08-17.04,.08-24.71-51.51,19.55-102.61,19.43-154.18-.04,0,5.27,.63,11.44-.14,17.42-1.23,9.5,3.62,14.06,11.2,17.47Z"/><path class="cls-3" d="M240.75,305.01c1.49,.03,3,.43,4.44,1.17-1.44-.74-2.95-1.14-4.44-1.17Z"/><path class="cls-3" d="M125.95,234.83c-.89-1.63-1.76-1.03-2.92-.54-4.27,1.82-8.44,3.85-12.03,6.86-6.28,5.25-6.24,9.66,.24,14.86,4.87,3.91,10.54,6.38,16.36,8.42,26.76,9.34,54.48,11.51,82.49,11.39,5.15,0,10.31,.22,15.45-.04,22.6-1.12,45.02-3.54,66.54-11.31,6.76-2.44,13.52-5.06,18.67-10.49,3.75-3.95,3.71-6.92,.08-10.91-3.95-4.33-9.17-6.59-14.33-8.95-1-.46-1.82-.68-2.55,.58-6.06,10.36-16.56,13.55-26.83,16.74-14.98,4.65-30.47,6.26-46.07,6.97-25.33,1.15-50.33-.76-74.51-9-8.09-2.76-16.05-6.33-20.58-14.57Z"/><path class="cls-3" d="M273.5,327.93c-.68,.71-1.36,1.42-2.04,2.13,.68-.71,1.36-1.42,2.04-2.13Z"/><path class="cls-3" d="M256.38,345.74h0c-1.38-1.42-2.73-2.82-4.09-4.22,1.36,1.4,2.72,2.8,4.09,4.22Z"/><path class="cls-3" d="M231.44,311.5c-1.34,3.58-.52,7.8,2.56,11.06,1.3,1.37,2.61,2.73,3.91,4.1-1.31-1.36-2.61-2.73-3.91-4.1-3.08-3.26-3.9-7.47-2.56-11.06Z"/><path class="cls-3" d="M258.64,313.68c-.95,.71-1.75,1.07-2.54,1.07,.79,0,1.59-.37,2.54-1.07Z"/><path class="cls-3" d="M272.05,304.87c2.31-.02,4.39,.68,6.16,2.26-1.77-1.58-3.85-2.28-6.16-2.26Z"/><path class="cls-3" d="M248.64,308.79c.22,.24,.44,.47,.65,.71-.21-.24-.43-.47-.65-.71Z"/><path class="cls-3" d="M313.52,267.61v-4.6c-5.73,3.7-11.09,6.59-16.85,8.71-25.12,9.22-51.27,11.85-77.67,12.6-16.12,.45-32.22-.07-48.27-2.1-22.27-2.82-44.24-6.46-64.42-19.02,0,25.66,.67,50.77-.29,75.81-.45,11.77,4.35,17.96,13.99,21.99,1.9,.79,3.78,1.6,5.7,2.35,17.91,6.94,36.69,9.8,55.61,11.35,30.89,2.54,61.67,1.4,92.08-5.22,12.19-2.66,24.23-5.96,34.69-13.47,3.81-2.74,5.57-6.12,5.54-11.04-.17-25.79-.08-51.57-.08-77.36Zm-119.67,58.08c-1.85,2.22-3.76,4.38-5.72,6.51-6.94,7.57-14.43,14.66-21.6,22.03-.79,.81-1.59,1.25-2.38,1.38-.97,.16-1.93-.17-2.87-.86-.34-.25-.67-.54-1-.88-7.68-7.89-15.5-15.65-23.04-23.67-1.01-1.08-2.04-2.14-3.04-3.23-3.88-4.21-5.19-9.91-4.16-15.33,.61-3.25,2.07-6.4,4.32-9.07,2.49-2.95,5.94-4.89,9.64-5.71,4.51-1,9.4-.32,13.43,2.19,.23,.14,.46,.27,.69,.43,1.96,1.35,3.65,3.12,5.57,4.79,1.21-1.3,2.46-2.48,3.77-3.52,2.38-1.88,4.96-3.26,7.87-3.9,1.99-.43,4.13-.52,6.46-.18,.46,.07,.9,.15,1.34,.25,9.29,2.08,15.27,10.98,14.49,19.64-.29,3.19-1.49,6.36-3.79,9.13Zm90.69,2.71c-1.65,1.68-3.3,3.36-4.96,5.04-5.8,5.88-11.6,11.75-17.31,17.71-.57,.6-1.15,1.19-1.72,1.79-.63,.67-1.24,1.19-1.83,1.59-2.25,1.52-4.28,1.07-6.71-1.47-7.91-8.27-16.07-16.29-23.93-24.6-7.37-7.8-7.48-19.08-.55-26.39,.87-.92,1.81-1.74,2.79-2.44,6.88-4.91,16.1-4.39,23,1.98,2.37,2.19,3.43,2.36,5.87-.03,1.06-1.04,2.16-1.92,3.3-2.65,3.02-1.94,6.31-2.79,9.75-2.61,2.23,.12,4.53,.67,6.86,1.66,7.2,3.05,10.6,8.94,10.92,16.76,.18,5.42-1.8,9.89-5.48,13.65Z"/><path class="cls-1" d="M183.15,296.92c-.44-.1-.89-.18-1.34-.25-2.33-.34-4.47-.26-6.46,.18-2.91,.64-5.49,2.02-7.87,3.9-1.31,1.04-2.56,2.22-3.77,3.52h0c-1.93-1.67-3.61-3.43-5.57-4.79-.22-.15-.46-.28-.68-.42-4.03-2.51-8.92-3.19-13.43-2.19-3.71,.82-7.15,2.76-9.64,5.72-2.25,2.67-3.71,5.82-4.32,9.07-1.03,5.42,.28,11.12,4.16,15.33,1,1.09,2.02,2.15,3.04,3.23,7.54,8.02,15.36,15.78,23.04,23.66,.33,.34,.66,.63,1,.88,.94,.69,1.9,1.01,2.87,.86,.79-.13,1.59-.57,2.38-1.38,7.17-7.36,14.66-14.46,21.6-22.03,1.95-2.13,3.87-4.29,5.72-6.51,2.3-2.77,3.5-5.94,3.79-9.13,.78-8.66-5.2-17.55-14.49-19.64Zm-19.58,48.66h0c-2.45-2.53-4.87-5.02-7.28-7.5-5.05-5.19-10.02-10.31-14.93-15.48-3.31-3.5-4.06-8.19-2.37-11.95,.5-1.11,1.2-2.15,2.11-3.04,1.56-1.52,3.46-2.4,5.44-2.66,3.01-.39,6.24,.65,8.9,3.12,6.09,5.66,7.62,7.07,11.54,4.21,1.31-.95,2.89-2.38,4.99-4.29,.28-.25,.56-.49,.85-.7,.07-.06,.15-.1,.22-.15,.22-.16,.43-.31,.65-.45,.27-.17,.54-.32,.82-.46,.03-.02,.06-.03,.09-.05,.16-.08,.33-.15,.5-.23,3.33-1.5,6.99-1.16,9.88,1.02,.44,.33,.86,.69,1.26,1.11,3.67,3.84,3.82,9.94-.1,14.14-7.33,7.84-14.88,15.45-22.56,23.38Z"/><path class="cls-1" d="M290.03,314.76c-.33-7.83-3.73-13.71-10.92-16.76-2.33-.99-4.63-1.54-6.86-1.66-3.44-.18-6.73,.68-9.75,2.61-1.14,.73-2.24,1.61-3.3,2.65-2.44,2.38-3.5,2.22-5.87,.03-6.89-6.37-16.11-6.9-23-1.98-.98,.7-1.92,1.52-2.79,2.44-6.93,7.31-6.83,18.59,.55,26.39,7.86,8.31,16.02,16.33,23.93,24.6,2.43,2.54,4.46,2.99,6.71,1.47,.59-.4,1.2-.92,1.83-1.59,.57-.6,1.15-1.19,1.72-1.79,5.71-5.97,11.52-11.84,17.31-17.71,1.65-1.68,3.31-3.35,4.96-5.03,3.68-3.75,5.66-8.23,5.48-13.65Zm-11.18,7.52c-1.78,1.89-3.56,3.77-5.35,5.65-.68,.71-1.36,1.42-2.04,2.13-4.96,5.18-9.97,10.36-15.07,15.68h0c-1.38-1.42-2.73-2.82-4.09-4.22-4.89-5.04-9.67-9.95-14.38-14.86-1.31-1.36-2.62-2.73-3.91-4.1-3.08-3.26-3.9-7.47-2.56-11.06,.47-1.25,1.19-2.43,2.18-3.46,2.01-2.09,4.54-3.09,7.13-3.03,1.49,.03,3,.43,4.44,1.17,1.07,.55,2.1,1.27,3.06,2.2,.13,.13,.25,.27,.38,.4,.22,.24,.44,.47,.65,.71,.12,.14,.25,.28,.37,.41,3.08,3.22,4.75,4.84,6.44,4.84,.79,0,1.59-.37,2.54-1.07,1.07-.8,2.33-2.04,4.01-3.76,1.81-1.85,3.51-3.92,6.11-4.59,1.14-.29,2.24-.45,3.29-.46,2.31-.02,4.39,.68,6.16,2.26,.66,.59,1.27,1.29,1.84,2.13,2.66,3.95,2.26,9.34-1.2,13.01Z"/><path class="cls-3" d="M186.23,308.07c-.4-.42-.82-.78-1.26-1.11-2.89-2.18-6.55-2.52-9.88-1.02-.17,.07-.33,.14-.5,.23-.03,.01-.06,.03-.09,.05-.27,.14-.55,.3-.82,.46-.22,.14-.44,.3-.65,.45-.07,.05-.15,.1-.22,.15-.29,.22-.57,.45-.85,.7-2.1,1.91-3.68,3.34-4.99,4.29-3.93,2.86-5.45,1.45-11.54-4.21-2.66-2.47-5.9-3.51-8.9-3.12-1.99,.26-3.88,1.14-5.44,2.66-.92,.89-1.62,1.93-2.12,3.04-1.68,3.77-.94,8.45,2.37,11.95,4.91,5.18,9.89,10.3,14.93,15.48,2.41,2.48,4.84,4.97,7.28,7.5h0c7.68-7.93,15.23-15.54,22.56-23.38,3.92-4.19,3.77-10.3,.1-14.14Z"/><path class="cls-3" d="M278.21,307.13c-1.77-1.58-3.85-2.28-6.16-2.26-1.05,0-2.16,.17-3.29,.46-2.6,.67-4.3,2.74-6.11,4.59-1.68,1.71-2.94,2.95-4.01,3.76-.95,.71-1.75,1.08-2.54,1.07-1.69,0-3.35-1.62-6.44-4.84-.13-.13-.25-.27-.37-.41-.22-.24-.44-.47-.65-.71-.13-.14-.25-.28-.38-.4-.96-.93-1.99-1.66-3.06-2.2-1.44-.74-2.95-1.14-4.44-1.17-2.59-.06-5.12,.95-7.13,3.03-.99,1.03-1.72,2.2-2.18,3.46-1.34,3.58-.52,7.8,2.56,11.06,1.3,1.37,2.6,2.73,3.91,4.1,4.7,4.91,9.49,9.83,14.38,14.86,1.36,1.4,2.72,2.8,4.09,4.22h0c5.1-5.31,10.12-10.5,15.07-15.68,.68-.71,1.36-1.42,2.04-2.13,1.79-1.88,3.58-3.76,5.35-5.65,3.46-3.68,3.86-9.06,1.2-13.01-.57-.84-1.18-1.55-1.84-2.13Z"/></g></svg>