<?xml version="1.0" encoding="UTF-8"?><svg id="Capa_1" xmlns="http://www.w3.org/2000/svg" xmlns:xlink="http://www.w3.org/1999/xlink" viewBox="0 0 438.87 279.09"><defs><style>.cls-1{clip-path:url(#clippath);}.cls-2,.cls-3{fill:none;}.cls-3{stroke:#35676d;stroke-miterlimit:10;stroke-width:5px;}.cls-4{fill:#35676d;}</style><clipPath id="clippath"><rect class="cls-2" x="0" y="0" width="438.87" height="279.08"/></clipPath></defs><g class="cls-1"><path class="cls-3" d="M139.55,223.12c-46.16,0-83.57-37.42-83.57-83.57S93.39,55.97,139.55,55.97s83.57,37.42,83.57,83.58-37.42,83.57-83.57,83.57Zm0-220.62C63.86,2.5,2.5,63.86,2.5,139.55s61.36,137.05,137.05,137.05,137.05-61.36,137.05-137.05S215.23,2.5,139.55,2.5Z"/><path class="cls-4" d="M341.06,48.18v116.86h7.18v5.27h-1.91v90.51c0,12.8,9.23,14.89,9.23,14.89,0,0,10.4,.5,10.4-14.89v-95.78h2.39V2.5s-27.3,7.36-27.3,45.68"/><path class="cls-4" d="M436.33,20.82c-.63-5.83-6.56-5.66-6.56,0s.84,59.56,.84,59.56c0,1.54-1.33,2.78-2.96,2.78s-2.96-1.24-2.96-2.78c0,0-1.11-52.19-1.22-59.56-.08-5.83-7.18-6.64-7.18,0,0,5.49-1.17,59.56-1.17,59.56,0,1.54-1.33,2.78-2.96,2.78s-2.96-1.24-2.96-2.78c0,0-1.08-52.55-1.18-59.56-.08-6.19-6.89-7.1-7,0-.13,8.27-1.4,59.56-1.4,59.56,0,1.54-1.32,2.78-2.96,2.78s-2.95-1.24-2.95-2.78c0,0,1.02-55.17,1.02-59.56s-6.23-6.96-7.04,0c-.81,6.97-5.18,41.01-3.6,60.88,.92,11.59,6.51,21.74,14.93,26.79,1.81,1.76,5.7,6.22,5.7,12.1v47.51h-3.57v90.51c0,15.48,9.55,15,9.55,15,0,0,10.74,.48,10.74-15v-90.51h-3.71v-47.51c0-4.48,4.1-9.83,5.91-11.96,8.09-4.72,13.4-14.29,14.65-26.93,1.87-18.9-1.32-55.05-1.96-60.88"/></g></svg>