<?xml version="1.0" encoding="UTF-8"?><svg id="Capa_1" xmlns="http://www.w3.org/2000/svg" xmlns:xlink="http://www.w3.org/1999/xlink" viewBox="0 0 353.58 389.51"><defs><style>.cls-1{clip-path:url(#clippath);}.cls-2{fill:none;}.cls-3{fill:#35676d;}</style><clipPath id="clippath"><rect class="cls-2" width="353.58" height="389.51"/></clipPath></defs><g class="cls-1"><path class="cls-3" d="M99.2,209.63c1.47-10.96-6.14-21.78-16.82-23.89-10.67-2.11-20.66,5.06-22.24,15.98-1.53,10.57,6.08,21.53,16.44,23.66,11.37,2.35,21.08-4.41,22.61-15.74m-14.92-48.24c4.81,.94,7.68,3.97,9.02,8.75,1.78,6.35,2.41,6.8,8.22,5.12,4.62-1.34,8.49,0,11.69,3.79,3.45,4.1,3.66,8.73,1.22,12.85-2.51,4.26-2.74,7.04,2.57,9.58,4.6,2.2,6.79,6.61,6.27,11.56-.49,4.71-3.36,8.08-8.04,8.77-5.2,.76-6.48,3.13-4.65,8.35,1.68,4.79,.73,9.27-3.25,12.21-3.91,2.89-8.3,2.85-12.5-.26-4.26-3.17-6.89-2.21-8.79,2.3-2,4.72-5.82,6.45-10.82,5.56-5.03-.91-7.98-4.14-9.26-9.21-1.41-5.58-2.56-6.22-8.07-4.72-4.77,1.3-8.88,.08-12.06-4.15-3.16-4.22-3.29-8.56-.77-12.86,2.95-5.03,2.7-6.03-2.45-8.98-4.69-2.68-7.08-6.59-6.46-11.93,.59-5.12,3.73-7.92,8.49-8.93,5.51-1.17,5.96-1.93,4.06-7.81-1.62-5.01-.66-9.25,3.2-12.2,3.79-2.9,8.02-3.1,12.46-.09,5.15,3.49,6.01,3.2,8.94-2.24,2.35-4.36,5.87-6.41,10.97-5.45"/><path class="cls-3" d="M173.7,150.89c1.07-11.09-6.83-21.61-17.51-23.33-10.56-1.7-20.62,6.14-21.65,16.88-1.05,10.91,6.98,21.28,17.86,23.08,11.2,1.85,20.19-5.17,21.3-16.63m.52,35.15c-1.59-.04-3.08-.98-4.6-1.96-4.89-3.16-6.14-2.87-8.71,2.3-2.26,4.55-5.84,6.38-10.84,5.53-5.02-.85-8.06-3.87-9.37-9.02-1.44-5.68-2.62-6.31-8.08-4.85-4.73,1.27-8.89,.14-12.08-4.05-3.21-4.2-3.16-8.59-.86-12.9,2.83-5.31,2.62-5.85-2.96-9.25-4.2-2.55-6.37-6.35-5.91-11.21,.45-4.81,3.08-7.87,7.66-9.12,6.67-1.82,6.62-1.83,4.83-8.71-1.24-4.75-.3-8.88,3.45-11.67,3.67-2.74,7.75-2.95,12.05-.3,6.06,3.75,6.08,3.7,9.61-2.43,2.37-4.1,5.95-5.91,10.69-4.98,4.75,.93,7.7,4.02,8.98,8.83,1.64,6.14,2.31,6.56,8.27,4.99,4.81-1.27,8.89,.12,12.02,4.28,3.2,4.24,3.08,8.73,.53,12.85-2.37,3.83-2.34,6.55,2.41,8.82,4.85,2.31,7.26,6.7,6.65,11.85-.61,5.08-3.67,8.37-8.96,8.98-4.58,.53-5.25,3.18-3.81,7.52,2.87,8.64-2.6,15.88-10.96,14.52"/><path class="cls-3" d="M248.39,93.1c1.06-11.02-6.96-21.67-17.58-23.36-10.83-1.72-20.51,5.82-21.59,16.8-1.09,11.1,6.77,21.43,17.66,23.24,10.93,1.82,20.44-5.56,21.51-16.68m-.28,34.88c-.56-.18-1.8-.39-2.89-.93-6.87-3.37-6.89-3.43-10.46,2.47-2.39,3.93-6.04,5.59-10.41,4.78-4.62-.85-7.77-4.1-9.18-8.83-1.94-6.49-2.22-6.66-8.63-5.3-4.53,.95-8.62-.15-11.62-4.26-3.06-4.19-3.4-8.48-.76-12.83,2.93-4.83,2.55-6.1-2.55-9.1-4.44-2.61-6.71-6.21-6.24-11.45,.51-5.52,3.56-8.5,8.64-9.2,4.88-.67,5.91-3.04,3.95-7.68-2.18-5.17-.79-9.5,3.25-12.55,3.89-2.93,8.16-2.68,12.5,.24,4.91,3.32,5.85,3.01,8.5-2.08,2.27-4.35,5.88-6.65,10.85-5.8,4.91,.84,8.13,3.98,9.47,9.06,1.64,6.19,2.2,6.51,8.22,4.93,4.77-1.25,8.91,.07,12.01,4.32,2.94,4.03,3.18,8.23,.82,12.42-3.11,5.49-2.94,6.18,2.51,9.4,4.49,2.66,6.64,6.44,6.08,11.57-.54,4.89-3.27,7.75-7.87,8.84-5.93,1.39-6.31,2.12-4.5,8.27,2.46,8.37-2.97,15.13-11.7,13.71"/><path class="cls-3" d="M156.09,51.58c-9.89-1.59-18.46,4.94-19.47,14.84-1.05,10.34,6.37,20.42,16.15,21.9,9.69,1.47,18.78-5.76,19.67-15.64,.91-10.13-6.35-19.49-16.34-21.1m23.46,55.79c-3.4,.76-4.26-.52-5.33-2.23-7.87-12.52-21.27-14.73-31.24-5.29-.82,.78-1.34,2.08-2.86,1.68-4.95-1.32-9.73-1.55-14.76-.59-3.71,.7-8.52-10.25-6.85-15.07,.39-1.12,.99-2.21,1.72-3.13,2.71-3.45,1.66-6.25-2.04-8.16-4.95-2.58-7.73-6.25-7.25-11.95,.48-5.78,4.06-8.46,9.21-9.33,4.3-.72,5.15-3.06,3.47-7.14-2.1-5.06-1.26-9.54,2.8-12.74,4.17-3.3,8.69-3.22,13.25,.36,3.7,2.89,6.3,2.26,7.98-2.05,1.92-4.93,5.82-7.04,10.95-6.23,5.18,.82,8.48,4.21,9.48,9.57,.86,4.58,3.1,6.33,7.33,4.64,4.41-1.76,8.45-.82,11.86,2.79,3.43,3.64,3.23,7.49,2.32,12.26-1.25,6.56-3.2,11.46-8.38,16.03-7.62,6.74-6.73,18.69,.94,26.58,3.39,3.49,2.42,6.41,1.42,9.56-.94,2.96-3.59,.3-4.03,.45"/><path class="cls-3" d="M81.39,109.54c-10.04-1.59-18.49,5.2-19.38,15.55-.87,10.12,6.62,19.74,16.41,21.09,9.77,1.34,18.94-5.98,19.65-15.69,.73-9.94-6.79-19.38-16.69-20.95m22.44,56.06c-2.59,.32-3.24-1.13-4.1-2.6-7.54-12.91-23.22-14.56-31.59-4.88-.11,.13-.2,.28-.34,.38-4.91,3.99-21.75-2.08-23.86-8.46-1.28-3.85-.31-6.9,1.78-9.79,2.38-3.31,1.34-6.02-2.2-7.74-5.08-2.47-7.71-6.33-7.19-11.9,.55-5.87,4.09-8.65,9.66-9.34,3.62-.45,4.9-2.89,3.36-6.47-2.38-5.52-1.62-10.22,2.8-13.58,4.45-3.38,9.16-2.74,13.75,1.07,2.92,2.41,5.36,1.47,6.66-1.54,2.21-5.09,5.58-8.14,11.4-7.22,5.77,.92,8.64,4.72,9.76,10.51,.67,3.5,2.95,5.36,6.54,3.85,8.2-3.45,12.45,2.09,16.11,7.16,.83,1.15,1.19,2.19,.39,3.38-.28,.42-.68,.84-.76,1.33-1.22,8.66-5.43,15.1-11.18,21.41-5.88,6.43-4.06,17.03,2.8,24.13,3.13,3.24,2.45,6.11,1.68,9.12-.91,3.59-4.15,.46-5.48,1.18"/><path class="cls-3" d="M253.22,245.17c.22,2.66-1.85,3.83-3.54,4.44-2.51,.89-2.34-2.08-2.94-3.43-7.52-16.94-14.82-33.98-22.45-50.87-1.57-3.48-.66-4.55,2.25-5.61,2.84-1.03,5.53-2.51,8.14-4.02,5.32-3.09,6.04-7.37,2.33-12.75-7.46-10.82-17.05-19.04-28.63-24.57-5.08-2.43-6.25-8-9.96-11.54-1.19-1.13,.16-6.38,2.33-6.88,2.19-.5,5.61-1.75,8.09,2.31,7.93,13.01,21.13,15.14,31.42,5.1,3.34-3.26,6.04,.43,9.04,.35,2.78-.07,1.62,2.62,1.66,4.14,.56,23.14,1.05,46.28,1.55,69.41,.24,11.3,.47,22.61,.71,33.9"/><path class="cls-3" d="M221.65,269.46c-14.77-4.31-29.52-8.63-44.3-12.93-16.11-4.68-32.22-9.34-48.33-14.03-1.67-.49-3.36-1-4.95-1.72-1.43-.65-4.44,0-3.88-2.44,.7-3.08-2.3-7.14,2.07-9.36,5.38-2.74,8.65-7.39,9.54-13.73,.98-6.95-.99-13.23-6.24-17.99-3.12-2.85-1.12-5.02-.91-7.56,.14-1.8,.94-2.33,2.67-2.05,2.47,.4,4.54-.6,7.08,2.54,4.87,6.01,6.7,12.69,8.73,19.69,2.68,9.21,7.41,17.55,13.52,25.05,4.18,5.13,8.79,5.47,13.17,1.02,1.78-1.8,3.82-3.49,5.04-5.68,2.3-4.14,4.37-4.08,8.13-.9,13.69,11.54,27.66,22.72,41.49,34.09,1.12,.92,3.6,1.77,2.64,3.41-1,1.71-2.78,3.56-5.47,2.6"/><path class="cls-3" d="M241.05,255.17c-.41,3.31-5.87,5.61-8.29,3.64-15.98-12.95-31.89-25.99-47.87-38.93-1.7-1.38-2.01-2.41-1.08-4.41,2.76-5.94,4.2-12.39,5.18-18.96,.3-1.96,1-2.53,2.97-2.35,6.7,.6,13.4,.97,19.95-.32,1.67-.34,2.58,.25,3.26,1.81,8.43,19.27,16.87,38.53,25.3,57.8,.28,.64,.46,1.33,.59,1.72"/><path class="cls-3" d="M260.27,284.29c1.1,.99,2.05,1.77,2.93,2.63,21.92,21.78,43.79,43.61,65.8,65.3,2.8,2.76,2.81,4.25-.09,6.39-6.37,4.69-12.63,9.55-18.79,14.52-2.39,1.92-3.59,1.23-5.04-1.38-15.28-27.37-30.64-54.7-45.94-82.06-.65-1.16-1.93-2.42-.92-3.87,.44-.63,1.27-.96,2.05-1.52"/><path class="cls-3" d="M250.33,292.14c.6,.91,1.32,1.86,1.9,2.89,15.3,27.22,30.56,54.46,45.9,81.67,1.2,2.12,1.39,3.41-.85,4.61-5.2,2.78-10.35,5.64-15.94,7.68-2.65,.97-4.04,.82-5.12-2.63-9.18-29.6-18.55-59.15-27.93-88.7-.81-2.53-1.16-4.54,2.03-5.51"/><path class="cls-3" d="M353.58,331.29c-.8,1.3-1.39,2.33-2.04,3.32-3.1,4.72-7.04,8.68-10.75,12.85-1.8,2.03-3.01,1.74-4.97-.22-21.89-21.89-43.87-43.68-65.75-65.57-.89-.89-3.33-1.62-2.01-3.6,1.33-2.01,3.01-1.23,4.9,0,25.95,16.88,51.95,33.68,77.93,50.51,1.12,.72,2.46,1.3,2.69,2.71"/><path class="cls-3" d="M104.33,87.59c-3.01,.66-3.56-.93-4.41-2.35-4.33-7.2-10.36-11.31-18.57-11.03-1.79,.07-2.86-.62-3.87-2.12-7.71-11.4-11.33-23.89-11.71-37.29-.07-2.56,.87-3.44,3.41-2.68,12.54,3.75,23.39,10.4,32.25,20.65,1.44,1.66,1.81,3.04,1.2,5.23-2.01,7.28-.26,14.21,5.27,19.61,3.31,3.25,2.25,6.11,1.32,9.06-.98,3.12-4,.31-4.9,.91"/><path class="cls-3" d="M270.81,248.08c2.6,.81,4.89,2.33,5.81,5.43,.97,3.28,.07,5.98-2.37,7.93-4.74,3.79-9.57,7.46-14.36,11.18-8.91,6.93-17.8,13.88-26.75,20.78-4.3,3.31-8.58,2.96-11.38-.8-2.7-3.63-2.1-7.78,1.98-10.98,13.52-10.62,27.12-21.12,40.7-31.66,1.78-1.37,3.73-2.3,6.37-1.89"/><path class="cls-3" d="M211.55,42.73c-.59-.1-.77-.1-.93-.16-4.35-1.53-9.19,2.36-12.17,.3-3.23-2.24-4.92-7.4-8.88-9.68-2.28-1.3-2.4-2.81-1.85-4.82,2.97-10.71,8.3-19.84,16.11-27.38,1.93-1.87,2.83-.82,3.89,.89,7.12,11.52,10.41,23.91,10.24,37.13-.07,5.41-2.97,5.32-6.41,3.72"/><path class="cls-3" d="M33.5,181.7c-12.17-3.25-23.09-9.52-32.16-19.33-1.64-1.78-2.07-2.85,.35-4.33,8.96-5.5,18.78-8.18,29.39-8.51,2.37-.07,4.31,.21,4.91,3.43,.87,4.76,6.98,7.79,6.89,11.44-.09,3.96-4.12,7.81-3.55,12.58,.61,5.02-1.54,5.81-5.83,4.72"/><path class="cls-3" d="M150.01,201.57c6.33-.07,11.92-1.64,15.97-6.52,1.15-1.39,2.28-1.7,4.01-.9,1.41,.65,3.14,1.53,4.45,1.25,6.06-1.28,5.71,2.16,4.7,6.15-2.42,9.54-6.76,17.94-12.98,25.29-2.17,2.57-3.39,2.17-5.31-.64-5.19-7.53-8.88-15.6-10.84-24.62"/><path class="cls-3" d="M193.67,182.79c1.31-2.55,1.55-5.44,.86-8.53-.39-1.78,.88-2.36,2.16-2.99,4.8-2.33,7.81-6.38,9.38-11.48,.64-2.08,1.07-2.29,3.01-1.19,7.54,4.28,13.89,9.96,19.32,16.83,1.24,1.57,1.49,2.59-.48,3.63-9.73,5.13-20.12,7.58-31.41,6.43-1.32-.13-3.46,.21-2.84-2.7"/><path class="cls-3" d="M68.9,203.95c.56-6.32,5.45-10.23,11.62-9.31,6.27,.94,10.83,6.77,10.12,12.94-.67,5.85-6.25,10.12-12.02,9.19-5.85-.95-10.26-6.76-9.72-12.83"/><path class="cls-3" d="M155.26,136.75c6.14,.99,10.75,6.95,10.04,12.96-.68,5.7-6.33,10.09-11.94,9.27-5.93-.86-10.42-6.91-9.78-13.15,.64-6.22,5.58-10.06,11.68-9.07"/><path class="cls-3" d="M229.61,78.8c6.18,.93,10.8,6.76,10.19,12.85-.6,5.91-5.95,10.18-11.75,9.36-6.2-.88-10.54-6.52-9.95-12.92,.58-6.35,5.37-10.21,11.51-9.29"/><path class="cls-3" d="M153.37,79.06c-5.05-.91-8.75-5.78-8.21-10.82,.53-4.88,5.38-8.69,10.14-7.96,5.05,.78,8.96,6.16,8.3,11.39-.67,5.22-4.97,8.33-10.23,7.39"/><path class="cls-3" d="M88.93,129.17c-.45,5.29-4.64,8.73-9.75,8-5.16-.74-9.27-6-8.67-11.1,.57-4.81,5.55-8.59,10.26-7.78,4.98,.86,8.6,5.7,8.16,10.88"/></g></svg>