<?xml version="1.0" encoding="UTF-8"?><svg id="Capa_1" xmlns="http://www.w3.org/2000/svg" xmlns:xlink="http://www.w3.org/1999/xlink" viewBox="0 0 361 401.73"><defs><style>.cls-1{fill:#fff;}.cls-2{clip-path:url(#clippath-2);}.cls-3{clip-path:url(#clippath-1);}.cls-4{fill:#33686d;}.cls-5{fill:#458287;}.cls-6{clip-path:url(#clippath);}.cls-7{fill:none;}.cls-8{fill:#80a199;}.cls-9{fill:#274e4f;}.cls-10{fill:#32676e;}.cls-11{fill:#35676d;}</style><clipPath id="clippath"><rect class="cls-7" x="0" width="361" height="401.73"/></clipPath><clipPath id="clippath-1"><rect class="cls-7" x="0" width="361" height="401.73"/></clipPath><clipPath id="clippath-2"><rect class="cls-7" x="0" width="361" height="401.73"/></clipPath></defs><g class="cls-6"><path class="cls-1" d="M348.23,185.53v118.85c0,9.07-5.14,17.37-13.3,21.46l-134.39,67.61c-12.6,6.34-27.48,6.34-40.07,0L26.07,325.84c-8.16-4.1-13.29-12.39-13.29-21.46v-118.85c0-8.13,4.11-15.72,10.95-20.2L162.03,97.94c11.65-5.67,25.29-5.67,36.94,0l138.3,67.38c6.84,4.48,10.96,12.07,10.96,20.2"/><path class="cls-1" d="M20.63,211.04v92.83s-.34,12.04,14.46,17.42l11.36,4.92c.17,.07,.34,.11,.51,.11,1.02,0,1.68-1.35,.76-2.12-7.09-5.93-16.42-15.33-16.42-23.74v-84.05l-10.67-5.37Z"/><path class="cls-11" d="M25.51,168.39c-5.74,3.85-9.17,10.24-9.17,17.13v118.85c0,7.77,4.35,14.79,11.34,18.3l134.4,67.61c11.53,5.81,25.3,5.81,36.83,0l134.4-67.61c6.99-3.51,11.34-10.53,11.34-18.3v-118.85c0-6.88-3.42-13.27-9.17-17.13L197.4,101.13c-10.58-5.15-23.22-5.15-33.79,0L25.51,168.39Zm154.99,233.33c-7.44,0-14.87-1.7-21.65-5.12L24.45,329c-9.41-4.73-15.25-14.16-15.25-24.62v-118.85c0-9.35,4.7-18.01,12.56-23.17,.13-.08,.26-.16,.4-.22L160.45,94.77c12.55-6.11,27.54-6.11,40.09,0l138.31,67.37c.14,.06,.27,.14,.4,.22,7.86,5.16,12.55,13.82,12.55,23.17v118.85c0,10.46-5.85,19.9-15.26,24.62l-134.39,67.61c-6.78,3.41-14.21,5.12-21.65,5.12"/></g><polygon class="cls-5" points="299.05 216.22 299.05 343.3 260.97 362.62 260.97 235.01 299.05 216.22"/><g class="cls-3"><path class="cls-1" d="M340.83,210.8l-38.74,19.49v100.67l29.57-14.63s9.17-4.35,9.17-24.07v-81.46Zm-82.9,41.71l-54.62,27.48c-4.87,2.45-10.07,4.07-15.37,4.84v85.61l-.99,17.45,70.98-35.1v-100.28Z"/></g><polygon class="cls-9" points="296.01 233.35 264 249.45 264 349.79 296.01 333.96 296.01 233.35"/><polygon class="cls-9" points="62.76 216.98 62.76 344.06 100.85 363.39 100.85 235.78 62.76 216.98"/><g class="cls-2"><path class="cls-1" d="M100.85,251.39v3.92l56.8,34.88c-.47,43.31-20.57,58.98-51.79,58.98-1.64,0-3.31-.04-5.01-.13v6.3l71.52,32.56v-103.17c-5.05-.81-10.01-2.39-14.67-4.74l-56.84-28.6Z"/><path class="cls-5" d="M65.6,233.66l35.24,21.64v-3.92l-35.24-17.73Zm16.2,113.01l19.04,8.67v-6.29c-6-.3-12.36-1.11-19.04-2.37"/><path class="cls-11" d="M264.01,236.88v120.81l32-16.24v-120.37l-32,15.8Zm-3.04,128.75c-.55,0-1.1-.15-1.59-.45-.9-.55-1.45-1.52-1.45-2.57v-127.6c0-1.14,.65-2.19,1.69-2.7l38.08-18.8c.94-.47,2.05-.42,2.95,.14,.9,.55,1.44,1.52,1.44,2.56v127.09c0,1.13-.64,2.16-1.66,2.68l-38.08,19.32c-.43,.22-.91,.33-1.38,.33"/><path class="cls-11" d="M65.8,342.22l32,16.24v-120.81l-32-15.8v120.37Zm35.04,24.18c-.47,0-.95-.11-1.39-.33l-38.08-19.32c-1.01-.52-1.65-1.55-1.65-2.68v-127.09c0-1.04,.55-2.01,1.44-2.56,.9-.55,2.01-.6,2.95-.14l38.08,18.8c1.03,.51,1.69,1.56,1.69,2.7v127.6c0,1.05-.55,2.02-1.46,2.57-.48,.29-1.03,.45-1.58,.45"/><path class="cls-1" d="M357.24,132.81v49.97c0,9.56-5.42,18.3-14.02,22.62l-141.61,71.24c-13.27,6.68-28.95,6.68-42.22,0L17.77,205.41c-8.59-4.32-14-13.06-14-22.62v-49.97c0-8.57,4.33-16.57,11.54-21.29L161.04,40.53c12.27-5.98,26.65-5.98,38.93,0l145.73,70.99c7.2,4.72,11.54,12.72,11.54,21.29"/><path class="cls-1" d="M12.78,154.33v42.55c2.28,2.11,5.09,3.89,8.33,5.19l6.04,2.45v-42.43l-14.37-7.77Z"/><path class="cls-11" d="M17.19,114.77c-6.06,4.06-9.66,10.79-9.66,18.05v49.97c0,8.19,4.58,15.58,11.94,19.29l141.63,71.24c12.15,6.11,26.66,6.11,38.81,0l141.61-71.24c7.37-3.71,11.95-11.09,11.95-19.29v-49.97c0-7.26-3.61-13.99-9.66-18.05L198.31,43.88c-11.14-5.42-24.46-5.42-35.61,0L17.19,114.77Zm163.31,170.61c-7.83,0-15.67-1.8-22.81-5.39L16.07,208.74c-9.91-4.99-16.07-14.93-16.07-25.95v-49.97c0-9.86,4.94-18.98,13.23-24.41,.14-.09,.27-.17,.42-.24L159.38,37.18c13.23-6.44,29.02-6.44,42.25,0l145.73,70.99c.14,.07,.28,.15,.42,.24,8.28,5.44,13.23,14.56,13.23,24.41v49.97c0,11.03-6.16,20.97-16.07,25.95l-141.61,71.24c-7.14,3.59-14.97,5.39-22.81,5.39"/><path class="cls-11" d="M201.81,220.57c-11.41,17.47-31.17,17.32-42.61,0-.33-.5-.04-1.47,.39-1.31,3.71,1.14,7.18,2.27,10.63,2.97,6.91,1.48,13.65,1.42,20.56-.04,3.46-.71,6.92-1.82,10.63-2.92,.42-.16,.73,.82,.4,1.31"/><path class="cls-11" d="M17.56,114.51c-7.26,6.47-9.26,15.14-3.24,23.27,3.72,5.39,9.28,9.26,15.18,12.04,35.29,18.26,70.36,36.95,104.95,56.52,.21,.12,.28,.38,.17,.59-.11,.19-.36,.27-.55,.18-13.26-5.79-26.45-11.73-39.59-17.75-22.98-10.57-45.87-21.33-68.62-32.36-19.89-8.63-33.14-30.33-14.13-47.4,.43-.36,.83-.7,1.33-1.06,4.1-2.8,8.34,2.87,4.51,5.98"/><path class="cls-11" d="M347.49,108.53c3.4,2.58,6.13,5.78,8.08,9.59,7.97,15.24-4.73,31.21-18.44,37.69-23.55,11.48-47.26,22.6-71.06,33.56-13.14,6.03-26.33,11.96-39.58,17.75-.22,.09-.48,0-.57-.22-.09-.2,0-.44,.18-.55,35.38-20,71.23-39.14,107.36-57.76,5.02-2.57,9.53-6.21,12.76-10.81,5.91-7.98,4.12-16.48-2.91-22.98-4.29-3.1-.22-9.1,4.18-6.27"/><path class="cls-9" d="M309.75,222.27v-48.16c0-5.41-3.07-10.37-7.94-12.82L110.58,65.09l-38.08,18.8,191.24,96.2c4.87,2.45,7.94,7.41,7.94,12.83v48.67l38.08-19.32Z"/><path class="cls-1" d="M350,146.3c-3.66,4-8.21,7.3-12.88,9.51-8.46,4.12-16.93,8.2-25.42,12.24,.71,1.9,1.09,3.96,1.09,6.07v38l28.51-14.59s8.69-6.4,8.69-15.28v-35.94Z"/><path class="cls-4" d="M350,144.26l-4.74,3.79-34.86,17.27c.51,.87,.94,1.78,1.3,2.72,8.49-4.04,16.96-8.11,25.42-12.24,4.67-2.2,9.22-5.5,12.88-9.51v-2.04Z"/><path class="cls-1" d="M267.78,188.58c-.57,.26-1.14,.52-1.7,.78-13.14,6.03-26.33,11.96-39.59,17.75-.06,.03-.11,.04-.17,.04-.09,0-.18-.03-.25-.08l-24.57,12.16h.02c.37,0,.6,.52,.3,.78-4.12,3.71-9.33,6.06-14.86,7.08v42.62s.44,2.48,4.38,2.48c1.97,0,4.81-.62,8.92-2.48l68.38-35.01v-41.8c0-1.52-.29-2.99-.86-4.34"/><path class="cls-4" d="M201.51,219.25h-.02l-5.85,5.3-8.69,4.58v4.49c5.52-1.86,10.73-6.16,14.86-12.95,.3-.49,.07-1.42-.3-1.42"/><path class="cls-4" d="M266.89,186.86l-40.83,20.21c.07,.05,.16,.08,.25,.08,.06,0,.11,0,.17-.04,13.26-5.79,26.45-11.73,39.58-17.75,.57-.27,1.14-.52,1.71-.78-.25-.6-.55-1.17-.89-1.72"/><path class="cls-9" d="M304.94,168.02l-32.6,16.14c1.53,2.61,2.36,5.6,2.36,8.76v38.69l32.01-16.39v-41.11c0-2.21-.63-4.31-1.77-6.09"/><path class="cls-1" d="M300.43,96.54c22.42,19.29,12.82,37.96-8.49,56.4l11.24,5.66c.58,.29,1.14,.61,1.68,.96l29.55-14.8s5.51-1.96,10.84-11.43c5.34-9.48-3.79-17.12-3.79-17.12l-41.05-19.68Z"/><path class="cls-10" d="M286.88,157.16c-7.65,6.13-16.42,12.24-25.57,18.34l3.79,1.9c.67,.34,1.3,.7,1.91,1.11l31.24-15.64-11.37-5.72Z"/><path class="cls-1" d="M255.51,179.34c-10.25,6.74-20.77,13.48-30.54,20.23l35.47-17.75-4.92-2.48Z"/><path class="cls-1" d="M174.64,44.24c-1.99,0-4.19,.43-6.54,1.56-1.93,.93-8.59,4.24-18.04,8.94,4.1,1.44,7.98,3.46,11.5,5.97,6.36-3.34,11.77-6.18,15.79-8.28,.35-2.53,.83-5.06,1.44-7.56-1.24-.38-2.64-.63-4.16-.63"/><path class="cls-9" d="M123.79,75.37c-5.39,0-9.46,2.31-12.11,6.89-1.21,2.11-2.11,4.66-2.69,7.48,6.78-3.94,13.57-7.89,20.16-11.7l-4.84-2.66c-.17,0-.35,0-.52,0"/><path class="cls-1" d="M60.42,99.47c-18.29,9.13-31.48,15.73-31.48,15.73,0,0-16.91,8-7.75,19.27,9.16,11.27,24.39,17.67,24.39,17.67,0,0-14.97-16.01-7.23-23.69,1.86-1.84,11.25-7.4,24.47-14.79-1.29-4.71-2.08-9.51-2.41-14.19"/><path class="cls-9" d="M89.24,241.36v-48.44c0-5.42,3.07-10.38,7.94-12.83l191.24-96.2-38.08-18.8L59.1,161.29c-4.87,2.45-7.94,7.41-7.94,12.83v48.16l38.08,19.09Z"/><path class="cls-11" d="M309.75,222.27h0ZM79.26,83.91l185.85,93.49c5.92,2.97,9.61,8.92,9.61,15.51v43.75l32-16.24v-46.31c0-4.3-2.41-8.19-6.27-10.14L110.56,68.46l-31.31,15.45Zm192.41,160.69c-.55,0-1.1-.15-1.59-.45-.9-.55-1.45-1.52-1.45-2.57v-48.68c0-4.3-2.41-8.18-6.27-10.13L71.12,86.58c-1.03-.52-1.67-1.56-1.67-2.7,0-1.14,.66-2.18,1.69-2.68l38.08-18.8c.86-.42,1.87-.42,2.72,.01l191.24,96.2c5.93,2.98,9.61,8.92,9.61,15.51v48.16c0,1.13-.64,2.16-1.65,2.68l-38.09,19.32c-.43,.22-.91,.33-1.38,.33"/><path class="cls-11" d="M54.2,220.42l32,16.04v-43.55c0-6.58,3.68-12.53,9.61-15.51l185.84-93.49-31.31-15.46L60.47,163.98c-3.87,1.95-6.27,5.83-6.27,10.14v46.3Zm35.04,23.96c-.47,0-.94-.11-1.37-.32l-38.08-19.09c-1.02-.52-1.67-1.55-1.67-2.69v-48.15c0-6.59,3.68-12.53,9.61-15.51L248.97,62.4c.86-.42,1.87-.43,2.72,0l38.08,18.8c1.03,.51,1.68,1.55,1.69,2.69,0,1.14-.65,2.18-1.67,2.7L98.56,182.78c-3.87,1.95-6.27,5.83-6.27,10.14v48.45c0,1.04-.55,2.02-1.45,2.57-.48,.29-1.03,.45-1.59,.45"/><path class="cls-5" d="M205.26,115.06s-.34,17.59,19.71,47.29l-43.21,8.97s-6.87-31.11-1.31-59.02l24.8,2.77Z"/><path class="cls-9" d="M202.85,124.42c-4,.15-11.89,.67-14.98,.88-1.6,2.4-3.52,4.7-5.76,6.88-.19,7.03,.14,13.75,.65,19.55,3.65-11.56,18.91-13.22,24.7-13.43-2.32-5.57-3.74-10.22-4.61-13.87"/><path class="cls-5" d="M221.42,96.54l54.13,3.79s-.06,18.69-17.49,29.45c0,0-38.64-5.45-56.43-17.49-17.79-12.04,19.8-15.75,19.8-15.75"/><path class="cls-9" d="M240.13,101.6c-7.51,4.61-15.71,7.57-24.05,8.6l-1.39,4.66c7.06,2.9,15.12,5.22,22.4,6.98-10.61-7.89,3.83-16.64,9.87-19.76l-6.83-.48Z"/><path class="cls-11" d="M200.64,106.3c.14,.3,.75,1.31,3.1,2.9,15.02,10.16,46.51,15.58,53.47,16.67,10.24-6.88,13.29-16.86,14.19-22.08l-49.92-3.5c-9.66,1-19.58,3.87-20.84,6.01m57.42,27.22c-.17,0-.35-.01-.53-.04-1.61-.23-39.71-5.73-58.02-18.11-5.09-3.43-7.18-7.08-6.21-10.84,2.13-8.31,20.12-10.96,27.75-11.71,.21-.02,.42-.03,.64,0l54.13,3.79c1.98,.14,3.51,1.77,3.5,3.74,0,.85-.29,20.89-19.26,32.61-.6,.37-1.29,.56-1.99,.56"/><path class="cls-9" d="M233.4,64.92c-7.87,19.46-23.21,21.58-23.21,21.58l-3.56-3.84s2.8-34.02,23.42-52.06c0,0,11.23,14.85,3.35,34.31m35.67-26.28c-1.47-11.11-8.48-20.74-18.42-26.07-20.2-10.84-40.09-15.76-57.45,9.97-10.6,13.72-15.98,37.1-10.68,53.85l30.61,30.34c33.05-2.41,60.05-36.86,55.94-68.1"/><path class="cls-5" d="M189.25,44.69s-6.52,13.31-2.06,29.38l16.31,3.43c.93-5.94,3.12-16.5,8-27.23-3.85,3.36-7.34,4.99-10.48,4.99-4.68,0-8.57-3.62-11.76-10.57"/><path class="cls-9" d="M251.3,23.64l-9.12,.69c-3.48,1.18-6.31,4.23-7.77,6.09,3.01,5.05,9.4,18.82,2.49,35.88-6.06,14.98-16.25,20.66-21.97,22.75l1.44,10.1c26.74-3.03,45.7-33.22,46.93-52.23,1.22-19.01-11.99-23.29-11.99-23.29"/><path class="cls-11" d="M213.12,110.47c-1.95,0-3.61-1.49-3.75-3.46-.15-2.05,1.4-3.84,3.48-4,14.39-1.05,28.58-8.87,38.92-21.46,10.49-12.76,15.43-28.23,13.56-42.44-1.28-9.72-7.44-18.42-16.47-23.26-20.55-11.02-37.35-13.75-52.53,8.76-.04,.06-.09,.13-.14,.19-10.36,13.42-14.79,35.59-10.09,50.46,.63,1.97-.48,4.07-2.46,4.68-1.98,.62-4.1-.48-4.72-2.45-5.43-17.19-.61-41.74,11.22-57.14,19.46-28.76,42.42-21.74,62.31-11.09,11.15,5.99,18.75,16.77,20.35,28.87,2.14,16.24-3.39,33.78-15.18,48.13-11.65,14.17-27.76,22.99-44.21,24.19-.09,0-.19,0-.28,0"/><path class="cls-11" d="M229.22,36.63c-15.34,16.44-18.47,42.82-18.8,46.02,2.92-.71,13.47-4.24,19.49-19.12,4.81-11.88,1.77-21.77-.69-26.9m-19.03,53.61c-1.85,0-3.46-1.35-3.72-3.22-.03-.21-.04-.42-.04-.63-.04,0-.06,0-.1,0-2.07-.17-3.61-1.97-3.45-4.02,.12-1.45,3.17-35.74,24.67-54.56,.78-.69,1.83-1.02,2.87-.91,1.04,.11,2,.64,2.63,1.47,.51,.68,12.4,16.78,3.84,37.95-8.59,21.23-25.46,23.79-26.18,23.89-.17,.02-.35,.04-.52,.04"/><path class="cls-11" d="M227.2,28.16c9.57-9.08,23.14-12.04,31.81-.17,.91,1.23-.78,2.69-1.88,1.64-5.76-5.78-12.7-6.42-19.2-1.49-1.67,1.24-3.22,2.7-4.56,4.3-.17,.21-.4,.48-.47,.61-1.08,1.79-3.42,2.36-5.22,1.29-2.26-1.3-2.45-4.53-.47-6.18"/><path class="cls-11" d="M181.76,175.04c-1.73,0-3.29-1.19-3.67-2.94-.29-1.3-6.98-32.2-1.32-60.54,.4-2.02,2.39-3.33,4.42-2.94,2.04,.4,3.37,2.36,2.97,4.39-4.26,21.38-.96,44.99,.6,53.86l34.07-7.07c-17.45-27.56-17.35-44.09-17.33-44.82,.04-2.06,1.76-3.69,3.84-3.66,2.07,.04,3.72,1.73,3.69,3.79,0,.31,.19,17.17,19.08,45.16,.7,1.03,.83,2.34,.36,3.48s-1.49,1.99-2.72,2.25l-43.21,8.96c-.26,.05-.52,.08-.78,.08"/><path class="cls-10" d="M172.73,79.33s11.79-7.13,28.32,0c16.52,7.13,12.57,23.44,11.27,33.08-1.29,9.64-18.26,13.45-27.28,10.37l-12.31-43.45Z"/><path class="cls-8" d="M187.26,81.75c-3.72,0-7.09,.91-8.4,1.31,.65,1.9,1.27,3.77,1.85,5.61l4.4-.73s.04,8.18,5.08,8.18,4.21-6.47,4.21-6.47c4.6,0,10.85,4.62,10.85,4.62,0,0-4.17-7.66-10.85-11.03-2.23-1.12-4.76-1.49-7.15-1.49"/><path class="cls-9" d="M208.74,88.6s-1.29,17.28-10.58,17.28c-6.29,0-10.63-5.45-12.78-8.97,3.47,9.12,4.81,16.04,5.3,19.4,1.28,.31,2.85,.55,4.65,.55,2.45,0,5.31-.45,8.39-1.81,9.23-4.08,5.04-26.46,5.04-26.46"/><path class="cls-9" d="M111.28,121.89c-11.11-19.08-10.26-51.92,14.33-50.19,22.79,1.61,28.78,38.66,28.78,38.66-9.3,28.17-43.11,11.53-43.11,11.53m57.32-49.16s-.21-.29-.61-.79c-7.02-8.91-17.39-14.61-28.72-15.85-6.97-.77-16.57-2.42-26.31-6.02-18.72-6.91-40.8,9.35-46.6,27.4-5.81,18.06-1.68,53.64,23.63,66.71,25.31,13.06,84.3,3.33,97.21-25.36,0,0-1.55-20.49-18.59-46.09"/><path class="cls-8" d="M105.82,53.86c-26.42,1.14-35.77,31.16-35.77,31.16,6.35-6.92,11.95-9.29,16.63-9.29,8.02,0,13.37,6.92,15.29,9.87,.74-2.85,1.84-5.5,3.33-7.87,1.16-1.83,2.74-3.77,4.86-5.44-3.89-1.62-11.31-5.27-9.13-9.03,2.92-5.04,19.11-5.12,19.11-5.12l-14.32-4.28Z"/><path class="cls-9" d="M133.01,69.56c18.73,7.24,24.38,36.05,25.05,39.86,.06,.24,.09,.5,.1,.78,.02,.45-.04,.91-.18,1.34,0,.01,0,.03-.01,.04-.02,.35,.11,.7,.31,1.08,.4,.68,1.24,1.42,2.34,2.01,2.2,1.23,5.11,1.95,8.03,2.41,3.16,.48,6.39,.68,9.63,.73,5.28-2.03,.64-8.6-5.53-22.82-6.8-15.66-14.37-20.57-14.77-20.97l-10.28-3.89-14.67-.55Z"/><path class="cls-11" d="M103.71,52.17c-5.02,0-9.56,1.56-12.92,3.18-9.61,4.63-17.8,13.76-20.85,23.25-5.06,15.7-2.1,49.93,21.77,62.25,14.02,7.24,39.89,7.06,61.5-.41,14.88-5.15,25.53-13.03,30.11-22.26-.55-4.16-3.63-21.96-17.83-43.33-.07-.09-.23-.31-.48-.63-6.34-8.05-15.88-13.31-26.16-14.44-6.7-.73-16.87-2.41-27.22-6.23-2.7-1-5.38-1.4-7.93-1.4m15.34,101.49c-11.91,0-22.83-2.06-30.82-6.18-26.71-13.78-32.02-50.82-25.47-71.15,3.71-11.52,13.18-22.13,24.73-27.7,9.05-4.36,18.56-5.09,26.77-2.06,9.62,3.55,19.13,5.12,25.41,5.81,12.29,1.34,23.69,7.63,31.27,17.26,.47,.59,.7,.92,.7,.92,.02,.04,.06,.08,.08,.11,17.38,26.12,19.13,47,19.21,47.87,.04,.62-.06,1.24-.32,1.8-5.18,11.52-17.58,21.16-34.93,27.16-11.88,4.1-24.75,6.16-36.64,6.16"/><path class="cls-11" d="M113.96,119c3.69,1.59,16.7,6.56,26.51,2.46,4.68-1.95,7.98-5.68,10.05-11.38-1.06-5.37-7.42-33.4-25.17-34.65-6.16-.44-10.76,1.67-13.65,6.27-5.43,8.6-4.37,25.1,2.27,37.31m17.81,11.5c-11.29,0-21.59-4.99-22.17-5.27-.67-.33-1.22-.84-1.59-1.48-7.49-12.87-10.56-33.61-2.72-46.03,3.09-4.89,9.17-10.56,20.57-9.75,25.49,1.8,31.97,40.17,32.24,41.8,.09,.59,.04,1.19-.14,1.75-2.72,8.28-7.65,13.94-14.61,16.84-3.74,1.56-7.72,2.14-11.59,2.14"/><path class="cls-11" d="M113.83,70.38c16.1-6.76,37.36-7.33,49.71,7.54,1.04,1.24-.55,3.03-1.75,1.93-9.05-9.04-22.27-10.05-33.71-6.62-3.77,1.08-7.54,2.55-11,4.46-4.74,2.59-8.1-4.94-3.25-7.31"/><path class="cls-11" d="M114.88,120.81c3.93,13.32,15.2,20.38,29.07,18.88,1.54-.15,1.93,2.12,.4,2.46-14.87,3.45-28.38-2.94-35.41-16.39-.48-.92-.91-1.79-1.27-2.8-1.02-2.11-.17-4.67,2.12-5.46,2.33-.86,4.94,.85,5.09,3.3"/><path class="cls-11" d="M158.02,111.37c.04-.18,.04-.18,.03-.18,0,0,0,0,0,0-.19,.49-.05,.94,.23,1.46,.39,.68,1.24,1.42,2.33,2.02,2.21,1.22,5.11,1.94,8.03,2.4,6.01,.91,12.28,.82,18.39,.52,.7-.04,1.3,.49,1.34,1.18,.03,.63-.42,1.18-1.03,1.29-3.12,.57-6.25,1.08-9.43,1.45-6.72,.64-13.21,1.19-19.93-1.19-4.28-1.46-8.36-5.94-7.21-10.95,1.49-4.71,8.44-2.79,7.26,2"/><path class="cls-11" d="M192.15,127.57c-2.98,0-5.86-.41-8.34-1.25-1.96-.68-3.01-2.8-2.34-4.75,.68-1.95,2.82-2.99,4.79-2.31,5.17,1.76,13.41,.72,18.38-2.32,2.37-1.45,3.69-3.14,3.94-5.02,.11-.79,.23-1.63,.36-2.51,1.72-11.62,2.2-21.64-9.4-26.66-14.38-6.21-24.45-.47-24.88-.22-1.78,1.05-4.09,.47-5.16-1.29-1.06-1.75-.51-4.03,1.26-5.1,.55-.33,13.67-8.05,31.78-.24,17.83,7.7,15.34,24.53,13.85,34.59-.13,.84-.24,1.65-.35,2.41-.55,4.15-3.13,7.73-7.45,10.38-4.52,2.77-10.68,4.28-16.45,4.28"/><path class="cls-5" d="M71.26,100s-.34,28.29,20.49,37.77c8.66,3.94,17.98,5.09,25.91,5.09,4.22,0,8.04-.32,11.17-.73-6.18-1.59-11.65-5.1-15.88-10.27-1.33-.48-3.02-1.63-5.16-3.75-10.33-10.25-10.45-26.7-10.45-26.7-4.02,3.08-8,4.14-11.61,4.14-8.23,0-14.46-5.54-14.46-5.54m83.48,18.58c-2.8,4.52-6.61,7.8-11.37,9.78-3.74,1.56-7.72,2.14-11.59,2.14-4.89,0-9.59-.93-13.4-2.01,4.78,7.34,12.64,11.4,21.96,11.4,1.19,0,2.39-.06,3.63-.2,.04,0,.09,0,.14,0,.3,0,.55,.1,.75,.26,17.86-3,30.83-15.55,33.68-18.52-.21,.03-.41,.05-.62,.08-2.98,.28-5.91,.55-8.85,.55-3.67,0-7.34-.42-11.08-1.74-1.13-.39-2.24-.98-3.25-1.73"/><path class="cls-11" d="M152.84,116.81l-11.17,7.36-23.82,2.13s.01,.74-.1,1.72c.2,.35,.4,.7,.62,1.03,3.81,1.14,8.51,2.12,13.39,2.12,3.87,0,7.85-.61,11.59-2.25,4.76-2.08,8.57-5.52,11.37-10.26-.69-.55-1.33-1.17-1.89-1.86"/><path class="cls-11" d="M117.76,127.5c-.23,1.86-.98,4.63-3.38,4.63-.42,0-.9-.09-1.44-.28,4.23,5.17,9.7,8.69,15.88,10.27,5.14-.67,8.4-1.54,8.4-1.54,2.62,0,5.17-.23,7.63-.64-.2-.16-.45-.26-.75-.26-.05,0-.09,0-.14,0-1.23,.14-2.44,.2-3.62,.2-9.33,0-17.18-4.06-21.97-11.4-.21-.32-.41-.65-.61-.99"/><path class="cls-11" d="M152.91,116.77l-.06,.11c.56,1.78,1.2,3.41,1.89,4.81,1.01,2.05,2.12,3.66,3.25,4.7,3.74,3.61,7.41,4.74,11.09,4.74,2.92,0,5.86-.73,8.84-1.49,.21-.06,.42-.13,.62-.2,.39-1.1,.59-1.71,.59-1.71l-12.72-2.87-13.49-8.1Z"/><path class="cls-8" d="M225.17,9.03c-2.2,0-8.5,.57-16.81,6.34-12.01,8.33-12.91,18.31-12.91,18.31,0,0,6.35-10.55,13.13-10.55,.83,0,1.66,.15,2.49,.51,7.35,3.13,5.81,11.35,6.27,11.35,.01,0,.04-.01,.06-.04,.65-.64,6.12-10.37,18.81-14.85,0,0-2.59,.33-5.87,.33-4.8,0-11.08-.71-12.77-4.21,0,0,6.93-4.28,15.08-4.28,3.07,0,6.3,.6,9.41,2.26,0,0-4.68-4.25-16.04-5.15,0,0-.29-.04-.84-.04"/><path class="cls-11" d="M182.22,398.2c-3.77-29.1-5.73-58.25-6.39-87.42-.09-9.71-.07-19.42,.65-29.14,.15-2.06,3.18-3.66,6.77-3.58,3.39,.09,6.06,1.66,6.22,3.58,1.59,24.28,.21,48.57-1.43,72.84-1.01,14.59-2.36,29.14-4.32,43.71-.03,.24-.39,.42-.8,.4-.37-.01-.66-.19-.69-.4"/></g></svg>