<?xml version="1.0" encoding="UTF-8"?><svg id="Capa_1" xmlns="http://www.w3.org/2000/svg" xmlns:xlink="http://www.w3.org/1999/xlink" viewBox="0 0 274.94 255.88"><defs><style>.cls-1{clip-path:url(#clippath);}.cls-2{fill:none;}.cls-3{fill:#35676d;}</style><clipPath id="clippath"><rect class="cls-2" x="0" width="274.93" height="255.88"/></clipPath></defs><g class="cls-1"><path class="cls-3" d="M177.09,171.72c-.93,1.6-1.9,3.16-2.87,4.66-7.78,12.07-16.19,23.71-23.89,35.85-.21,.33-.45,.68-.83,.81-.43,.15-.91-.02-1.33-.2-22.44-9.41-79.81-51.42-48.9-77.11,6.75-5.61,17.76-4.23,24.89,.94,7.13,5.17,11.22,13.16,14.65,21,2.1-7.2,5.5-14.06,10.03-20.2,4.92-6.67,14.56-9.09,22.84-7.29,20.37,4.43,12.17,29.89,5.4,41.53"/><path class="cls-3" d="M60.22,225.7l160.45,.43c7.5,.02,13.6-6.46,13.6-14.46V127.19c0-7.82-6.34-14.16-14.16-14.16H62.53c-8.8,0-15.93,7.13-15.93,15.93v82.19c0,8.03,6.09,14.53,13.62,14.56m170.01,30.17H50.93c-9.73,0-17.63-8.42-17.63-18.79V98.85H247.56V237.4c0,10.2-7.76,18.48-17.33,18.48"/></g><polygon class="cls-3" points="137.47 0 0 99.41 274.93 99.41 137.47 0"/></svg>