<?xml version="1.0" standalone="no"?>
<!DOCTYPE svg PUBLIC "-//W3C//DTD SVG 20010904//EN"
 "http://www.w3.org/TR/2001/REC-SVG-20010904/DTD/svg10.dtd">
<svg version="1.0" xmlns="http://www.w3.org/2000/svg"
 width="500.000000pt" height="500.000000pt" viewBox="0 0 500.000000 500.000000"
 preserveAspectRatio="xMidYMid meet">

<g transform="translate(0.000000,500.000000) scale(0.100000,-0.100000)"
fill="#000000" stroke="none">
<path d="M1771 3233 c-6 -16 -37 -105 -70 -200 -53 -152 -58 -173 -44 -185 13
-10 18 -9 29 7 8 10 14 24 14 31 0 6 7 29 16 50 l17 39 13 -38 c7 -21 22 -49
33 -63 10 -13 17 -33 14 -43 -6 -22 14 -91 26 -91 5 0 29 -18 55 -41 25 -22
46 -38 46 -34 0 14 -62 95 -92 120 l-33 27 32 -18 c34 -21 89 -84 99 -116 3
-11 8 -18 10 -15 7 7 -47 199 -67 238 -10 20 -41 63 -68 96 -28 34 -51 63 -51
66 0 9 65 -10 106 -31 78 -40 159 -155 183 -263 14 -60 13 -115 -3 -176 l-14
-52 34 -50 c67 -100 142 -270 179 -406 1 -5 0 31 -2 80 -2 50 0 131 6 180 10
90 10 89 6 -45 l-4 -135 20 115 c16 90 18 123 10 151 -10 32 -14 36 -38 33
-16 -2 -20 -1 -10 2 10 3 17 15 17 30 0 26 -9 31 -28 12 -9 -9 -12 -9 -12 0 0
6 7 15 16 20 14 8 16 36 12 256 -3 136 -2 243 2 239 4 -4 123 -315 266 -690
l259 -683 61 0 61 0 185 513 185 512 -25 23 c-19 18 -27 21 -32 10 -4 -7 -56
-149 -116 -315 -59 -167 -111 -300 -115 -295 -4 4 -107 266 -227 582 l-220
575 -236 3 c-263 3 -280 -2 -181 -51 36 -18 59 -36 65 -53 6 -14 10 -114 9
-222 l-1 -197 -34 100 c-18 55 -59 173 -90 263 l-56 162 -103 0 -103 0 -11
-27z"/>
<path d="M3385 3251 c-3 -6 -12 -28 -20 -50 -14 -40 -13 -42 19 -90 18 -27 48
-84 66 -127 18 -44 38 -86 45 -94 15 -18 52 -90 71 -139 14 -35 14 -34 8 29
-3 35 -10 73 -16 83 -5 10 -7 21 -4 24 9 9 25 -43 33 -110 l8 -62 29 122 c30
128 30 164 1 274 -12 45 -12 50 2 47 25 -5 71 -69 98 -134 l25 -59 0 87 c0
108 11 133 72 164 27 14 46 29 43 34 -8 13 -472 13 -480 1z m144 -229 c11 -16
23 -40 26 -55 6 -23 4 -27 -13 -27 -20 0 -27 10 -42 63 -6 19 -5 25 2 21 7 -5
9 -1 5 9 -9 25 -1 21 22 -11z m15 -108 c3 -8 2 -12 -4 -9 -6 3 -10 10 -10 16
0 14 7 11 14 -7z"/>
<path d="M3328 3096 c-16 -43 -16 -44 8 -67 13 -12 26 -21 27 -18 2 2 9 13 15
24 10 17 11 14 12 -23 0 -37 4 -44 26 -53 15 -5 29 -8 31 -5 8 7 -63 150 -83
168 -19 17 -20 16 -36 -26z"/>
<path d="M3634 3120 c31 -119 31 -153 -2 -291 -32 -134 -37 -178 -23 -213 6
-16 12 -14 44 24 58 68 81 138 81 250 1 84 -2 101 -26 151 -15 30 -40 66 -54
80 l-27 24 7 -25z"/>
<path d="M1814 2998 c25 -29 54 -71 65 -93 27 -58 74 -242 65 -257 -4 -7 -4
-10 1 -6 4 4 21 -11 38 -34 27 -38 30 -40 41 -22 6 10 11 57 11 104 0 77 -3
92 -37 162 -39 82 -97 147 -160 179 -66 34 -74 24 -24 -33z"/>
<path d="M3252 2888 c-52 -147 -53 -158 -6 -158 17 0 27 20 66 128 l46 127
-21 23 c-11 12 -23 22 -27 22 -4 0 -30 -64 -58 -142z"/>
<path d="M3380 2819 l0 -141 64 -61 c35 -34 82 -91 105 -126 78 -121 35 7 -48
142 -13 20 -21 37 -18 37 9 0 90 -134 103 -170 l13 -35 1 48 c1 157 -91 386
-172 428 -21 10 -40 19 -43 19 -3 0 -5 -63 -5 -141z m127 -73 c-9 -22 -54 -49
-72 -42 -18 7 -20 27 -2 21 6 -3 23 4 37 15 23 18 23 20 5 20 l-20 1 20 9 c24
9 40 -3 32 -24z"/>
<path d="M1630 2832 c0 -6 -3 -17 -6 -26 -5 -12 0 -16 21 -16 22 0 26 4 23 22
-3 22 -38 40 -38 20z"/>
<path d="M3735 2778 c-11 -48 -42 -107 -85 -158 -33 -40 -37 -53 -42 -115 -4
-44 -2 -63 3 -50 22 50 -9 -265 -36 -369 -3 -12 8 7 24 40 16 34 48 90 71 123
75 112 76 116 79 350 1 116 0 211 -2 211 -3 0 -9 -15 -12 -32z"/>
<path d="M1445 2298 c-92 -266 -176 -500 -186 -520 -19 -38 -79 -81 -131 -93
-16 -4 -28 -13 -28 -21 0 -11 31 -14 170 -14 104 0 170 4 170 10 0 5 -21 20
-47 32 -88 42 -88 47 -9 283 l69 205 163 0 c103 0 164 4 164 10 0 13 70 12
145 -3 96 -19 209 -113 272 -224 41 -72 42 -57 3 43 -37 97 -96 188 -116 180
-11 -4 -12 -2 -5 12 6 11 6 24 0 33 -8 12 -10 12 -20 -1 -9 -13 -10 -13 -6 0
2 8 12 17 22 18 20 4 37 -16 30 -36 -3 -8 8 -30 24 -50 36 -47 68 -109 97
-192 12 -36 23 -55 23 -44 3 70 -67 324 -104 380 -12 19 -25 24 -58 25 -23 0
-51 4 -62 9 -12 5 4 6 40 3 l60 -6 -30 33 c-16 17 -52 45 -80 61 -27 16 -45
29 -39 29 5 0 31 -13 57 -29 32 -21 44 -25 40 -14 -5 11 -3 14 6 9 16 -10 -30
63 -85 136 -60 77 -174 178 -174 154 0 -3 5 -17 12 -33 6 -15 16 -46 22 -68
10 -35 19 -44 85 -81 41 -24 88 -57 105 -75 26 -29 27 -30 3 -9 -28 24 -170
110 -175 106 -1 -2 3 -16 8 -32 7 -21 21 -34 46 -43 20 -7 33 -15 31 -18 -3
-2 -15 1 -27 7 -30 16 -33 9 -19 -40 11 -35 21 -46 53 -62 37 -18 25 -20 -16
-3 -16 6 -15 -1 6 -63 14 -39 22 -73 18 -76 -6 -6 -502 -9 -502 -2 0 2 43 126
95 275 52 150 95 275 95 277 0 2 -11 4 -23 4 -22 0 -35 -31 -192 -482z"/>
<path d="M3235 2710 c3 -5 10 -10 16 -10 5 0 9 5 9 10 0 6 -7 10 -16 10 -8 0
-12 -4 -9 -10z"/>
<path d="M3381 2465 c-2 -175 -1 -187 19 -215 43 -61 71 -150 79 -252 8 -102
19 -140 18 -66 0 24 5 93 10 153 10 110 10 110 12 34 0 -41 -4 -101 -10 -133
-6 -32 -8 -60 -6 -63 3 -2 16 27 28 66 16 48 26 67 32 58 6 -8 7 -7 4 5 -3 9
3 58 13 110 31 147 29 160 -30 202 -44 32 -125 122 -151 169 -20 36 1 14 47
-49 44 -60 124 -134 145 -134 13 0 -15 81 -43 125 -28 44 -146 175 -157 175
-4 0 -8 -83 -10 -185z m144 -185 c11 -36 -33 -68 -51 -37 -4 6 -4 9 1 5 9 -9
35 9 35 23 0 5 -7 9 -16 9 -8 0 -12 5 -9 10 11 17 33 11 40 -10z"/>
<path d="M2270 2263 c-7 -54 -10 -118 -8 -143 l3 -45 38 73 38 73 -23 70 c-12
38 -25 69 -29 69 -4 0 -12 -44 -19 -97z"/>
<path d="M3733 2333 c-4 -10 -23 -43 -43 -73 -54 -80 -68 -113 -28 -65 43 52
83 94 71 75 -31 -47 -97 -125 -105 -122 -5 1 -7 -2 -3 -8 4 -6 -3 -27 -14 -46
-33 -55 -25 -58 37 -14 31 23 66 48 76 56 17 12 20 28 22 114 3 99 0 117 -13
83z"/>
<path d="M3380 2205 c1 -130 32 -334 58 -382 9 -16 11 -14 19 12 4 17 8 82 8
145 -1 101 -4 122 -27 177 -14 34 -33 72 -42 85 -15 22 -16 20 -16 -37z"/>
<path d="M2297 2107 l-46 -103 12 -112 c7 -61 17 -115 21 -119 5 -5 6 2 2 13
-6 20 26 114 39 114 3 0 -2 -17 -11 -37 -9 -21 -19 -47 -22 -58 -4 -18 -1 -17
24 6 16 15 43 34 59 43 29 17 30 17 5 0 -14 -10 -42 -35 -62 -57 -35 -34 -38
-43 -38 -92 l0 -55 175 0 c191 0 215 8 129 44 -47 19 -87 66 -99 119 -6 20
-13 27 -34 28 -24 1 -24 1 -4 7 16 5 20 11 14 21 -5 8 -16 11 -25 8 -20 -8
-21 2 -1 17 13 10 9 30 -35 160 -27 82 -51 151 -53 153 -2 2 -25 -43 -50 -100z
m91 -160 c4 -31 -21 -48 -41 -28 -9 9 -8 11 6 6 14 -6 17 -2 17 20 0 20 -4 26
-15 21 -8 -3 -15 -1 -15 5 0 6 10 9 23 7 16 -2 23 -11 25 -31z m42 -190 c0
-18 -21 -37 -39 -37 -13 1 -13 3 2 14 22 17 6 30 -24 21 -15 -5 -19 -4 -15 4
10 16 76 14 76 -2z m-97 -4 c-7 -2 -19 -2 -25 0 -7 3 -2 5 12 5 14 0 19 -2 13
-5z"/>
<path d="M1823 2183 c9 -2 25 -2 35 0 9 3 1 5 -18 5 -19 0 -27 -2 -17 -5z"/>
<path d="M2014 2125 c3 -9 9 -29 12 -43 4 -15 13 -35 21 -44 8 -9 13 -21 10
-25 -3 -5 10 -60 29 -123 20 -65 32 -122 28 -134 -9 -31 -34 -56 -71 -71 -63
-26 -38 -35 97 -35 l130 0 0 34 c0 66 -11 94 -47 118 -34 23 -169 195 -160
205 3 2 28 -29 55 -69 52 -77 123 -149 130 -130 5 15 -43 128 -79 184 -30 47
-104 119 -143 140 -16 9 -18 7 -12 -7z"/>
<path d="M3645 2067 c-94 -69 -101 -78 -124 -135 -13 -34 -28 -59 -32 -56 -5
3 -6 -3 -2 -12 3 -10 2 -15 -3 -12 -5 4 -9 -4 -10 -15 0 -12 -2 -29 -5 -37 -3
-10 2 -14 16 -12 87 12 98 12 45 -2 -30 -8 -59 -12 -64 -8 -5 3 -7 -2 -3 -11
4 -10 2 -14 -6 -11 -8 3 -24 -18 -40 -51 l-27 -55 240 0 c151 0 240 4 240 10
0 5 -22 21 -49 35 -27 13 -53 30 -58 37 -4 7 -10 102 -13 211 l-5 198 -100
-74z m3 -174 c4 -24 -30 -49 -50 -37 -7 5 -4 10 10 15 12 5 22 16 22 25 0 10
-5 14 -16 10 -9 -3 -12 -2 -9 5 11 17 40 5 43 -18z m-98 -44 c-48 -38 -80 -60
-80 -55 0 6 91 76 99 76 3 0 -5 -9 -19 -21z m135 -55 c9 -9 15 -24 13 -33 -4
-21 -41 -26 -56 -8 -10 12 -8 13 13 9 20 -3 24 -1 19 12 -3 9 -10 16 -15 16
-5 0 -9 5 -9 10 0 15 17 12 35 -6z m-118 -79 c25 -17 21 -45 -6 -45 -10 0 -26
6 -36 14 -18 13 -18 14 8 9 35 -7 35 2 0 21 -24 13 -25 15 -8 16 11 0 30 -7
42 -15z"/>
<path d="M3381 1893 c0 -69 -6 -133 -13 -148 -7 -15 -31 -34 -60 -48 -67 -31
-63 -47 12 -47 l60 0 30 60 c36 71 36 74 9 134 -11 26 -24 75 -28 109 -8 56
-9 50 -10 -60z"/>
<path d="M2252 1860 c0 -14 2 -19 5 -12 2 6 2 18 0 25 -3 6 -5 1 -5 -13z"/>
<path d="M2032 1358 l-2 -68 33 1 c29 1 30 2 7 8 -22 6 -26 14 -31 66 l-6 60
-1 -67z"/>
<path d="M2110 1355 l0 -65 38 2 c36 1 36 1 5 5 -27 4 -33 9 -33 28 0 19 6 24
33 28 l32 4 -32 1 c-26 2 -33 6 -33 22 0 16 7 20 30 20 17 0 30 5 30 10 0 6
-16 10 -35 10 l-35 0 0 -65z"/>
<path d="M2210 1417 c0 -5 8 -22 17 -37 15 -27 15 -30 -1 -55 -10 -15 -16 -29
-13 -31 2 -3 12 7 22 22 l17 27 24 -29 c28 -35 32 -23 4 13 -20 25 -20 25 1
55 12 16 19 31 16 34 -2 2 -12 -8 -22 -23 l-18 -27 -23 30 c-13 16 -24 25 -24
21z"/>
<path d="M2394 1406 c-3 -8 -4 -20 -3 -27 2 -8 -3 -24 -10 -37 -17 -32 1 -51
47 -49 32 1 37 4 37 24 0 14 -5 21 -12 18 -18 -6 -35 29 -21 43 14 14 3 42
-17 42 -9 0 -18 -6 -21 -14z m31 -26 c-5 -8 -11 -8 -17 -2 -6 6 -7 16 -3 22 5
8 11 8 17 2 6 -6 7 -16 3 -22z m-1 -47 c9 -22 -10 -41 -25 -26 -13 13 -5 43
10 43 5 0 12 -8 15 -17z"/>
<path d="M2570 1415 c0 -5 -7 -36 -14 -67 -8 -32 -11 -58 -6 -58 4 0 11 19 15
43 l7 42 21 -45 21 -45 14 38 c8 20 18 37 22 37 4 0 11 -17 16 -37 4 -21 9
-31 11 -23 1 8 -3 40 -10 70 l-12 55 -21 -55 -21 -54 -21 54 c-12 30 -21 51
-22 45z"/>
<path d="M2703 1355 c0 -38 2 -53 4 -32 2 20 2 52 0 70 -2 17 -4 1 -4 -38z"/>
<path d="M2741 1353 c1 -38 4 -56 6 -40 5 34 16 34 41 2 25 -32 38 -33 17 -1
-14 21 -14 25 0 36 33 28 7 70 -44 70 -19 0 -21 -5 -20 -67z m66 31 c7 -18
-14 -35 -37 -31 -8 1 -16 12 -18 25 -3 18 1 22 23 22 14 0 28 -7 32 -16z"/>
<path d="M2843 1355 c0 -38 2 -53 4 -32 2 20 2 52 0 70 -2 17 -4 1 -4 -38z"/>
<path d="M2898 1354 c-15 -35 -23 -64 -18 -64 4 0 10 7 14 15 8 21 62 20 70
-1 4 -9 9 -15 11 -12 5 5 -33 106 -44 120 -3 4 -18 -22 -33 -58z m45 6 c4 -15
0 -20 -15 -20 -14 0 -18 5 -14 16 3 9 6 20 6 25 0 17 17 1 23 -21z"/>
<path d="M3002 1354 c1 -67 1 -67 7 -19 l6 49 32 -49 33 -50 -2 70 c-1 58 -2
62 -5 21 l-4 -49 -35 48 -34 49 2 -70z"/>
<path d="M1932 1357 c-23 -54 -29 -85 -11 -54 6 10 22 17 39 17 17 0 33 -7 39
-17 18 -31 12 0 -11 54 -12 29 -25 53 -28 53 -3 0 -16 -24 -28 -53z m42 7 c9
-23 8 -24 -14 -24 -11 0 -20 2 -20 4 0 12 13 36 20 36 4 0 11 -7 14 -16z"/>
</g>
</svg>
