<?xml version="1.0" encoding="UTF-8"?><svg id="Objects" xmlns="http://www.w3.org/2000/svg" viewBox="0 0 323.87 647.68"><defs><style>.cls-1{fill:#1e2736;}.cls-2{fill:#fff;}.cls-2,.cls-3{opacity:.4;}.cls-4{fill:#144d5f;}.cls-3,.cls-5{fill:#004957;}.cls-6{fill:#101721;}.cls-7{fill:#fdede0;opacity:.5;}.cls-8{fill:#003f59;}</style></defs><g><path class="cls-6" d="M163.47,41.38h-2.7V23.48l1.33-.02c5.64-.09,10.22-4.74,10.22-10.37s-4.66-10.38-10.38-10.38-10.38,4.66-10.38,10.38c0,.13,.01,.2,.01,.26l-2.7,.05v-.06c0-.08-.01-.16-.01-.25,0-7.22,5.87-13.09,13.09-13.09s13.09,5.87,13.09,13.09c0,6.65-5.07,12.22-11.56,12.99v15.3Z"/><path class="cls-1" d="M165.99,43.01c0-2.24-1.82-4.06-4.06-4.06s-4.06,1.82-4.06,4.06,1.82,4.06,4.06,4.06,4.06-1.82,4.06-4.06Z"/><path class="cls-6" d="M234.88,73.07c-16.29,.68-34.61-13.09-48.52-21.23-13.91-8.14-24.43-7.8-24.43-7.8,0,0-10.52-.34-24.43,7.8-13.91,8.14-32.23,21.91-48.52,21.23-8.72-.36-12.89,9.82-9.84,14.23l82.79-28.34,82.79,28.34c3.05-4.41-1.12-14.6-9.84-14.23Z"/></g><g><g><path class="cls-4" d="M203.28,188.11c4.69-12.5,21.88-31.64,19.53-48.44-2.34-16.8-11.33-31.25-29.69-28.13-18.36,3.12-30.08,14.45-30.08,14.45l-1.11,1.11-1.11-1.11s-11.72-11.33-30.08-14.45c-18.36-3.13-27.35,11.33-29.69,28.13-2.34,16.8,14.85,35.94,19.53,48.44,4.69,12.5,8.98,36.72,.78,58.6-8.2,21.88-21.88,44.15-18.75,125.79,0,0,26.5,17.92,59.25,17.97h0s.04,0,.06,0,.04,0,.06,0h0c32.76-.05,59.25-17.97,59.25-17.97,3.13-81.65-10.55-103.92-18.75-125.79-8.21-21.88-3.91-46.1,.78-58.6Z"/><g><g><path class="cls-8" d="M210.49,100.73c0,2.86-2.09,5.18-4.66,5.18s-4.66-2.32-4.66-5.18,2.09-5.19,4.66-5.19,4.66,2.32,4.66,5.19Z"/><path class="cls-8" d="M210.26,107.53c0,3.13-2.51,5.67-5.6,5.67s-5.6-2.54-5.6-5.67,2.51-5.67,5.6-5.67,5.6,2.54,5.6,5.67Z"/><path class="cls-8" d="M215.08,109.07c0,3.07-2.31,5.56-5.15,5.56s-5.15-2.49-5.15-5.56,2.31-5.56,5.15-5.56,5.15,2.49,5.15,5.56Z"/><path class="cls-8" d="M215.53,100.58c0,2.82-2.02,5.11-4.51,5.11s-4.51-2.29-4.51-5.11,2.02-5.11,4.51-5.11,4.51,2.29,4.51,5.11Z"/><path class="cls-8" d="M218.23,106.03c0,2.68-2,4.85-4.47,4.85s-4.47-2.17-4.47-4.85,2-4.85,4.47-4.85,4.47,2.17,4.47,4.85Z"/><path class="cls-7" d="M212.44,104.04c0-1.83-1.48-3.31-3.31-3.31s-3.31,1.48-3.31,3.31,1.48,3.31,3.31,3.31,3.31-1.48,3.31-3.31Z"/></g><g><path class="cls-8" d="M216.43,83.44c0,2.86-2.09,5.19-4.66,5.19s-4.66-2.32-4.66-5.19,2.09-5.18,4.66-5.18,4.66,2.32,4.66,5.18Z"/><path class="cls-8" d="M216.2,90.24c0,3.13-2.51,5.67-5.6,5.67s-5.6-2.54-5.6-5.67,2.51-5.67,5.6-5.67,5.6,2.54,5.6,5.67Z"/><path class="cls-8" d="M221.01,91.79c0,3.07-2.3,5.56-5.15,5.56s-5.15-2.49-5.15-5.56,2.31-5.56,5.15-5.56,5.15,2.49,5.15,5.56Z"/><path class="cls-8" d="M221.46,83.29c0,2.82-2.02,5.11-4.51,5.11s-4.51-2.29-4.51-5.11,2.02-5.11,4.51-5.11,4.51,2.29,4.51,5.11Z"/><path class="cls-8" d="M224.17,88.74c0,2.68-2,4.85-4.47,4.85s-4.47-2.17-4.47-4.85,2-4.85,4.47-4.85,4.47,2.17,4.47,4.85Z"/><path class="cls-7" d="M218.38,86.75c0-1.83-1.48-3.31-3.31-3.31s-3.31,1.48-3.31,3.31,1.48,3.31,3.31,3.31,3.31-1.48,3.31-3.31Z"/></g><g><path class="cls-8" d="M221.99,66.08c0,2.86-2.09,5.19-4.66,5.19s-4.66-2.32-4.66-5.19,2.09-5.19,4.66-5.19,4.66,2.32,4.66,5.19Z"/><path class="cls-8" d="M221.76,72.89c0,3.13-2.51,5.67-5.6,5.67s-5.6-2.54-5.6-5.67,2.51-5.67,5.6-5.67,5.6,2.54,5.6,5.67Z"/><path class="cls-8" d="M226.57,74.43c0,3.07-2.3,5.56-5.15,5.56s-5.15-2.49-5.15-5.56,2.31-5.56,5.15-5.56,5.15,2.49,5.15,5.56Z"/><path class="cls-8" d="M227.02,65.93c0,2.82-2.02,5.11-4.51,5.11s-4.51-2.29-4.51-5.11,2.02-5.11,4.51-5.11,4.51,2.29,4.51,5.11Z"/><path class="cls-8" d="M229.73,71.38c0,2.68-2,4.85-4.47,4.85s-4.47-2.17-4.47-4.85,2-4.85,4.47-4.85,4.47,2.17,4.47,4.85Z"/><path class="cls-7" d="M223.94,69.39c0-1.83-1.48-3.31-3.31-3.31s-3.31,1.48-3.31,3.31,1.48,3.31,3.31,3.31,3.31-1.48,3.31-3.31Z"/></g></g><g><g><path class="cls-8" d="M113.38,100.73c0,2.86,2.09,5.18,4.66,5.18s4.66-2.32,4.66-5.18-2.09-5.19-4.66-5.19-4.66,2.32-4.66,5.19Z"/><path class="cls-8" d="M113.61,107.53c0,3.13,2.51,5.67,5.6,5.67s5.6-2.54,5.6-5.67-2.51-5.67-5.6-5.67-5.6,2.54-5.6,5.67Z"/><path class="cls-8" d="M108.8,109.07c0,3.07,2.31,5.56,5.15,5.56s5.15-2.49,5.15-5.56-2.31-5.56-5.15-5.56-5.15,2.49-5.15,5.56Z"/><path class="cls-8" d="M108.34,100.58c0,2.82,2.02,5.11,4.51,5.11s4.51-2.29,4.51-5.11-2.02-5.11-4.51-5.11-4.51,2.29-4.51,5.11Z"/><path class="cls-8" d="M105.64,106.03c0,2.68,2,4.85,4.47,4.85s4.47-2.17,4.47-4.85-2-4.85-4.47-4.85-4.47,2.17-4.47,4.85Z"/><path class="cls-7" d="M111.43,104.04c0-1.83,1.48-3.31,3.31-3.31s3.31,1.48,3.31,3.31-1.48,3.31-3.31,3.31-3.31-1.48-3.31-3.31Z"/></g><g><path class="cls-8" d="M107.44,83.44c0,2.86,2.09,5.19,4.66,5.19s4.66-2.32,4.66-5.19-2.09-5.18-4.66-5.18-4.66,2.32-4.66,5.18Z"/><path class="cls-8" d="M107.67,90.24c0,3.13,2.51,5.67,5.6,5.67s5.6-2.54,5.6-5.67-2.51-5.67-5.6-5.67-5.6,2.54-5.6,5.67Z"/><path class="cls-8" d="M102.86,91.79c0,3.07,2.3,5.56,5.15,5.56s5.15-2.49,5.15-5.56-2.31-5.56-5.15-5.56-5.15,2.49-5.15,5.56Z"/><path class="cls-8" d="M102.41,83.29c0,2.82,2.02,5.11,4.51,5.11s4.51-2.29,4.51-5.11-2.02-5.11-4.51-5.11-4.51,2.29-4.51,5.11Z"/><path class="cls-8" d="M99.7,88.74c0,2.68,2,4.85,4.47,4.85s4.47-2.17,4.47-4.85-2-4.85-4.47-4.85-4.47,2.17-4.47,4.85Z"/><path class="cls-7" d="M105.49,86.75c0-1.83,1.48-3.31,3.31-3.31s3.31,1.48,3.31,3.31-1.48,3.31-3.31,3.31-3.31-1.48-3.31-3.31Z"/></g><g><path class="cls-8" d="M101.88,66.08c0,2.86,2.09,5.19,4.66,5.19s4.66-2.32,4.66-5.19-2.09-5.19-4.66-5.19-4.66,2.32-4.66,5.19Z"/><path class="cls-8" d="M102.11,72.89c0,3.13,2.51,5.67,5.6,5.67s5.6-2.54,5.6-5.67-2.51-5.67-5.6-5.67-5.6,2.54-5.6,5.67Z"/><path class="cls-8" d="M97.3,74.43c0,3.07,2.3,5.56,5.15,5.56s5.15-2.49,5.15-5.56-2.31-5.56-5.15-5.56-5.15,2.49-5.15,5.56Z"/><path class="cls-8" d="M96.85,65.93c0,2.82,2.02,5.11,4.51,5.11s4.51-2.29,4.51-5.11-2.02-5.11-4.51-5.11-4.51,2.29-4.51,5.11Z"/><path class="cls-8" d="M94.14,71.38c0,2.68,2,4.85,4.47,4.85s4.47-2.17,4.47-4.85-2-4.85-4.47-4.85-4.47,2.17-4.47,4.85Z"/><path class="cls-7" d="M99.93,69.39c0-1.83,1.48-3.31,3.31-3.31s3.31,1.48,3.31,3.31-1.48,3.31-3.31,3.31-3.31-1.48-3.31-3.31Z"/></g></g></g><g><g><path class="cls-5" d="M218.91,370.55l-56.97,15.4-56.97-15.4s-50.5,105.18-45.69,257.89c0,0,46.89,19.24,102.2,19.24h.92c55.31,0,102.21-19.24,102.21-19.24,4.81-152.71-45.69-257.89-45.69-257.89Z"/><path class="cls-3" d="M217.7,368.72l-55.77,17.2-55.77-17.2s-49.3,72.15-68.54,232.67c0,0,16.55,32.54,123.85,32.47,96.32-.07,124.76-32.47,124.76-32.47-19.24-160.52-68.54-232.67-68.54-232.67Z"/><path class="cls-3" d="M217.7,368.72l-55.77,17.2-55.77-17.2s-46.29,38.48-85.97,206.21c0,0,22.89,36.06,141.28,39.08,91.76,2.34,142.2-39.08,142.2-39.08-39.68-167.74-85.97-206.21-85.97-206.21Z"/></g><g><path class="cls-3" d="M218.91,370.55s116.63,138.85,104.01,211.59c-12.63,72.75-94.99-135.87-119.64-206.21l15.63-5.38Z"/><path class="cls-3" d="M190.65,372.92s-7.81,260.93,63.13,254.31c70.94-6.61-43.29-257.32-43.29-257.32l-19.84,3Z"/><path class="cls-3" d="M104.96,370.55S-11.67,509.4,.96,582.14c12.62,72.75,94.99-135.87,119.64-206.21l-15.63-5.38Z"/><path class="cls-3" d="M133.22,372.92s7.81,260.93-63.13,254.31c-70.94-6.61,43.29-257.32,43.29-257.32l19.84,3Z"/><path class="cls-3" d="M168.4,381.34l-6.47,1.08-6.47-1.08s-69.74,266.33,6.01,257.92h.92c75.75,8.42,6.01-257.92,6.01-257.92Z"/></g></g><g><g><path class="cls-8" d="M164.53,384.42c0,2.86-2.09,5.18-4.66,5.18s-4.66-2.32-4.66-5.18,2.09-5.18,4.66-5.18,4.66,2.32,4.66,5.18Z"/><path class="cls-8" d="M164.31,391.22c0,3.13-2.51,5.67-5.6,5.67s-5.6-2.54-5.6-5.67,2.51-5.67,5.6-5.67,5.6,2.54,5.6,5.67Z"/><path class="cls-8" d="M169.12,392.76c0,3.07-2.31,5.56-5.15,5.56s-5.15-2.49-5.15-5.56,2.31-5.56,5.15-5.56,5.15,2.49,5.15,5.56Z"/><path class="cls-8" d="M169.57,384.27c0,2.82-2.02,5.11-4.51,5.11s-4.51-2.29-4.51-5.11,2.02-5.11,4.51-5.11,4.51,2.29,4.51,5.11Z"/><path class="cls-8" d="M172.28,389.72c0,2.68-2,4.85-4.47,4.85s-4.47-2.17-4.47-4.85,2-4.85,4.47-4.85,4.47,2.17,4.47,4.85Z"/><path class="cls-2" d="M166.49,387.73c0-1.83-1.48-3.31-3.31-3.31s-3.31,1.48-3.31,3.31,1.48,3.3,3.31,3.3,3.31-1.48,3.31-3.3Z"/></g><g><path class="cls-8" d="M192.6,376.83c0,2.86-2.09,5.18-4.66,5.18s-4.66-2.32-4.66-5.18,2.09-5.18,4.66-5.18,4.66,2.32,4.66,5.18Z"/><path class="cls-8" d="M192.38,383.63c0,3.13-2.51,5.67-5.6,5.67s-5.6-2.54-5.6-5.67,2.51-5.67,5.6-5.67,5.6,2.54,5.6,5.67Z"/><path class="cls-8" d="M197.19,385.17c0,3.07-2.31,5.56-5.15,5.56s-5.15-2.49-5.15-5.56,2.31-5.56,5.15-5.56,5.15,2.49,5.15,5.56Z"/><path class="cls-8" d="M197.64,376.68c0,2.82-2.02,5.11-4.51,5.11s-4.51-2.29-4.51-5.11,2.02-5.11,4.51-5.11,4.51,2.29,4.51,5.11Z"/><path class="cls-8" d="M200.35,382.13c0,2.68-2,4.85-4.47,4.85s-4.47-2.17-4.47-4.85,2-4.85,4.47-4.85,4.47,2.17,4.47,4.85Z"/><path class="cls-2" d="M194.56,380.14c0-1.83-1.48-3.31-3.31-3.31s-3.31,1.48-3.31,3.31,1.48,3.31,3.31,3.31,3.31-1.48,3.31-3.31Z"/></g><g><path class="cls-8" d="M218.76,368.11c0,2.86-2.09,5.18-4.66,5.18s-4.66-2.32-4.66-5.18,2.09-5.18,4.66-5.18,4.66,2.32,4.66,5.18Z"/><path class="cls-8" d="M218.53,374.92c0,3.13-2.51,5.67-5.6,5.67s-5.6-2.54-5.6-5.67,2.51-5.68,5.6-5.68,5.6,2.54,5.6,5.68Z"/><path class="cls-8" d="M223.34,376.46c0,3.07-2.31,5.56-5.15,5.56s-5.15-2.49-5.15-5.56,2.31-5.56,5.15-5.56,5.15,2.49,5.15,5.56Z"/><path class="cls-8" d="M223.79,367.96c0,2.82-2.02,5.11-4.51,5.11s-4.51-2.29-4.51-5.11,2.02-5.11,4.51-5.11,4.51,2.29,4.51,5.11Z"/><path class="cls-8" d="M226.5,373.41c0,2.68-2,4.85-4.47,4.85s-4.47-2.17-4.47-4.85,2-4.85,4.47-4.85,4.47,2.17,4.47,4.85Z"/><path class="cls-2" d="M220.71,371.42c0-1.83-1.48-3.31-3.31-3.31s-3.31,1.48-3.31,3.31,1.48,3.31,3.31,3.31,3.31-1.48,3.31-3.31Z"/></g><g><path class="cls-8" d="M131.27,376.83c0,2.86,2.09,5.18,4.66,5.18s4.66-2.32,4.66-5.18-2.09-5.18-4.66-5.18-4.66,2.32-4.66,5.18Z"/><path class="cls-8" d="M131.49,383.63c0,3.13,2.51,5.67,5.6,5.67s5.6-2.54,5.6-5.67-2.51-5.67-5.6-5.67-5.6,2.54-5.6,5.67Z"/><path class="cls-8" d="M126.68,385.17c0,3.07,2.31,5.56,5.15,5.56s5.15-2.49,5.15-5.56-2.31-5.56-5.15-5.56-5.15,2.49-5.15,5.56Z"/><path class="cls-8" d="M126.23,376.68c0,2.82,2.02,5.11,4.51,5.11s4.51-2.29,4.51-5.11-2.02-5.11-4.51-5.11-4.51,2.29-4.51,5.11Z"/><path class="cls-8" d="M123.53,382.13c0,2.68,2,4.85,4.47,4.85s4.47-2.17,4.47-4.85-2-4.85-4.47-4.85-4.47,2.17-4.47,4.85Z"/><path class="cls-2" d="M129.31,380.14c0-1.83,1.48-3.31,3.3-3.31s3.31,1.48,3.31,3.31-1.48,3.31-3.31,3.31-3.3-1.48-3.3-3.31Z"/></g><g><path class="cls-8" d="M105.11,368.11c0,2.86,2.09,5.18,4.66,5.18s4.66-2.32,4.66-5.18-2.09-5.18-4.66-5.18-4.66,2.32-4.66,5.18Z"/><path class="cls-8" d="M105.34,374.92c0,3.13,2.51,5.67,5.6,5.67s5.6-2.54,5.6-5.67-2.51-5.68-5.6-5.68-5.6,2.54-5.6,5.68Z"/><path class="cls-8" d="M100.53,376.46c0,3.07,2.31,5.56,5.15,5.56s5.15-2.49,5.15-5.56-2.31-5.56-5.15-5.56-5.15,2.49-5.15,5.56Z"/><path class="cls-8" d="M100.08,367.96c0,2.82,2.02,5.11,4.51,5.11s4.51-2.29,4.51-5.11-2.02-5.11-4.51-5.11-4.51,2.29-4.51,5.11Z"/><path class="cls-8" d="M97.37,373.41c0,2.68,2,4.85,4.47,4.85s4.47-2.17,4.47-4.85-2-4.85-4.47-4.85-4.47,2.17-4.47,4.85Z"/><path class="cls-2" d="M103.16,371.42c0-1.83,1.48-3.31,3.31-3.31s3.31,1.48,3.31,3.31-1.48,3.31-3.31,3.31-3.31-1.48-3.31-3.31Z"/></g></g></g></svg>